<svg xmlns="http://www.w3.org/2000/svg" xmlns:xlink="http://www.w3.org/1999/xlink" viewBox="0 0 995.4 1811.95"><defs><style>.cls-1,.cls-15,.cls-8{fill:none;}.cls-2{fill:#fc9;}.cls-3{fill:#ef1611;}.cls-4{fill:#eab686;}.cls-5{fill:#f2b394;}.cls-6{fill:#f78e54;}.cls-7{fill:#f75200;}.cls-8{stroke:#000;}.cls-15,.cls-8{stroke-miterlimit:10;}.cls-9{fill:#1491ef;}.cls-10{clip-path:url(#clip-path);}.cls-11{fill:#fcfbfa;}.cls-12{clip-path:url(#clip-path-3);}.cls-13{opacity:0.7;}.cls-14{clip-path:url(#clip-path-6);}.cls-15{stroke:#050200;}.cls-16{opacity:0.63;}.cls-17{clip-path:url(#clip-path-7);}.cls-18{opacity:0.47;}.cls-19{clip-path:url(#clip-path-8);}</style><clipPath id="clip-path" transform="translate(-1 5.04)"><rect class="cls-1" y="1204.37" width="600" height="300"/></clipPath><clipPath id="clip-path-3" transform="translate(-1 5.04)"><rect class="cls-1" y="1505.91" width="600" height="300"/></clipPath><clipPath id="clip-path-6" transform="translate(-1 5.04)"><rect class="cls-1" x="44.5" y="1608.29" width="107" height="78.62"/></clipPath><clipPath id="clip-path-7" transform="translate(-1 5.04)"><rect class="cls-1" x="245.5" y="1588.91" width="108" height="94"/></clipPath><clipPath id="clip-path-8" transform="translate(-1 5.04)"><rect class="cls-1" x="442.5" y="1525.91" width="121" height="157"/></clipPath></defs><title>spritesheetfinaldone</title><g id="Layer_1" data-name="Layer 1"><g id="Layer_1-2" data-name="Layer 1"><path class="cls-2" d="M83.26,9.55C78.75,6.83,14,27.63,40,75c0,0,68.25,39.72,100.36-7.79C143.7,64.09,143.23,16.1,83.26,9.55Z" transform="translate(-1 5.04)"/><path class="cls-2" d="M39.23,74.55c1.78,0,14.35,22.4,23.31,19.2,0,0,41.26,14.38,53.8,3.2s30.08-15.2,24.83-32.4S39.23,74.55,39.23,74.55Z" transform="translate(-1 5.04)"/><path d="M102.61,62.38c4.18-2.05,8.17,2.12,12.41,2.12a6.54,6.54,0,0,0,3.86-1.35,9.48,9.48,0,0,1,6.77-2.42.63.63,0,1,0,0-1.26,9.65,9.65,0,0,0-5.21,1A29.06,29.06,0,0,0,118,62.2a5.79,5.79,0,0,1-5,.75C109.24,62,106,59.32,102,61.28c-.79.37,0,1.46.7,1.1Z" transform="translate(-1 5.04)"/><path d="M87.91,10.44A9.22,9.22,0,0,1,89.36,3c.56-.62-.43-1.51-1-.87a10.13,10.13,0,0,0-1.85,8.2C86.56,11.24,88,11.24,87.91,10.44Z" transform="translate(-1 5.04)"/><path d="M72.93,78.06a25.42,25.42,0,0,1,9.91.59c2.75.87,5.21,2.28,7.94,3.22a26.92,26.92,0,0,0,15.93.16,62.4,62.4,0,0,0,7.72-3.42,37.83,37.83,0,0,1,9-2.85,45.52,45.52,0,0,1,9-.62A4.89,4.89,0,0,0,137,73.59c.52-.66-.7-1.3-1.22-.62-.88,1.26-2.93.91-4.33.91s-2.69,0-4,.11a39.11,39.11,0,0,0-7.29,1.3c-5.3,1.46-9.7,4.73-15.05,6A26,26,0,0,1,88,79.48,31.63,31.63,0,0,0,81.26,77a30.77,30.77,0,0,0-8.33-.11.59.59,0,0,0-.69.47.59.59,0,0,0,.46.7A.58.58,0,0,0,72.93,78.06Z" transform="translate(-1 5.04)"/><path d="M73.15,78.36a4.62,4.62,0,0,1,0-2.85.62.62,0,0,0-.42-.76l-.07,0a.72.72,0,0,0-.86.43,5.68,5.68,0,0,0,0,3.52c.27.75,1.62.41,1.35-.34Z" transform="translate(-1 5.04)"/><path d="M83.26,12.34c-.23-5.48.79-11,5.21-15.09.65-.59-.36-1.46-1-.87-4.69,4.27-5.85,10.16-5.62,16C81.93,13.13,83.31,13.13,83.26,12.34Z" transform="translate(-1 5.04)"/><ellipse cx="104.59" cy="46.78" rx="1.78" ry="4"/><ellipse cx="109.08" cy="47.6" rx="0.9" ry="1.6"/><g id="mave"><path class="cls-2" d="M63.2,94.34c-20,17.37-35.3,53.9-20.47,85.5,0,0,63.19,27.76,97.77-7.53,2.23,0,4.92-57.42-23.13-75.68Z" transform="translate(-1 5.04)"/></g><g id="arme"><path class="cls-2" d="M58.44,114.14c-15.55-12.76-56.78,19.77-32.93,39.31,0,0,12.35-1.14,13.9,4.11s-14.9,2.28-14.9,2.28-4.2,15.07-8.71,9.84,1.33-11.19,1.33-11.19-10.36-1.94-6.32-5.64,9.7-.25,9.7-.25c-23.13-34.34-.54-42.28,33.09-43.93Z" transform="translate(-1 5.04)"/></g><g id="ben"><path class="cls-2" d="M51.09,207s11.47-8.29,13.25,10c-11.53,19.63-14.2,24.2-44.84,59.11,0,0,26.77,10.48,24.83,13.81.65-1.87,8.17,3.74-6.77,9.86,0,0-40.87-33.56-36.11-31.6C14.23,273.42,65,219.11,51.09,207Z" transform="translate(-1 5.04)"/><path class="cls-2" d="M102.75,221.3s-5.26-15.23,15.41-8.24c17.69,20.78,21.78,25.55,49.65,72.37,0,0,20.49-21.35,23.49-17.83-1.83-1.53,6.77-6.26,8.55,11.42,0,0-50.51,24.22-46.79,20.55C163.19,289.31,120.72,213.38,102.75,221.3Z" transform="translate(-1 5.04)"/></g><g id="badebukser"><path class="cls-3" d="M39.48,174s72.4,18.26,103.21-6.1c0,0,8.64,25.68-2.8,39.27-1.62,3.13-7.83,7.31-12,8.72,0,0-35.39,16.76-64.77,3.4,0,0-1.4-5-13.74-6C49.43,213.29,34.24,206.21,39.48,174Z" transform="translate(-1 5.04)"/></g><path d="M96.13,96.42a25.26,25.26,0,0,0,11.78,0,17.08,17.08,0,0,0,4.94-1.53,48.15,48.15,0,0,1,5.08-3.54c1-.43.2-2-.86-1.58a14.6,14.6,0,0,0-3.16,2,12.89,12.89,0,0,1-5.51,2.65,25,25,0,0,1-11.83.25.88.88,0,0,0-1,.74A.89.89,0,0,0,96.13,96.42Z" transform="translate(-1 5.04)"/><path class="cls-4" d="M111.72,129.32c29.27,31.57,66.71-7.47,41.75-30.41,0,0-12.91-2.56-12.84-8.29s15.8,2.28,15.8,2.28,8.82-13.7,11.85-7.24-4.85,10.71-4.85,10.71,10,5.18,4.74,7.6-9.77-2.79-9.77-2.79c37.42,24.75-20.56,68.81-53.29,37.3Z" transform="translate(-1 5.04)"/></g><g id="Layer_2" data-name="Layer 2"><path class="cls-2" d="M298.8,11.92C294,9.2,225.38,30,252.94,77.32c0,0,72.35,39.7,106.39-7.78C362.87,66.43,362.37,18.47,298.8,11.92Z" transform="translate(-1 5.04)"/><path class="cls-2" d="M252.12,76.88c1.89,0,15.22,22.39,24.71,19.19,0,0,43.73,14.38,57,3.19s31.89-15.2,26.32-32.38S252.12,76.88,252.12,76.88Z" transform="translate(-1 5.04)"/><path d="M319.3,64.72c4.43-2.05,8.66,2.12,13.16,2.12a7.21,7.21,0,0,0,4.09-1.35,10.42,10.42,0,0,1,7.18-2.42c.93,0,.93-1.16,0-1.26a10.77,10.77,0,0,0-5.53,1c-.93.46-1.67,1.16-2.56,1.71a6.45,6.45,0,0,1-5.26.75c-4-.91-7.49-3.63-11.72-1.67-.84.37,0,1.46.74,1.1Z" transform="translate(-1 5.04)"/><path d="M303.73,12.81a8.79,8.79,0,0,1,1.53-7.42c.6-.62-.45-1.51-1-.87a9.69,9.69,0,0,0-2,8.19C302.29,13.61,303.85,13.61,303.73,12.81Z" transform="translate(-1 5.04)"/><path d="M287.84,80.4a28.53,28.53,0,0,1,10.5.59c2.92.87,5.53,2.28,8.42,3.22a30.19,30.19,0,0,0,16.89.16,68.24,68.24,0,0,0,8.18-3.42,41.87,41.87,0,0,1,9.57-2.85,51.13,51.13,0,0,1,9.57-.62,5.37,5.37,0,0,0,4.78-1.55c.55-.66-.74-1.3-1.29-.62-.93,1.26-3.11.91-4.59.91s-2.85,0-4.23.11a43.73,43.73,0,0,0-7.73,1.3c-5.62,1.46-10.29,4.72-16,6a29.06,29.06,0,0,1-17.78-1.8,25.94,25.94,0,0,0-16-2.58.64.64,0,0,0-.78.42A.6.6,0,0,0,287.84,80.4Z" transform="translate(-1 5.04)"/><path d="M288.08,80.69a4.36,4.36,0,0,1,0-2.85.61.61,0,0,0-.45-.76l-.08,0a.78.78,0,0,0-.91.43,5.37,5.37,0,0,0,0,3.51c.29.75,1.72.41,1.44-.34Z" transform="translate(-1 5.04)"/><path d="M298.8,14.7c-.24-5.48.84-11,5.53-15.08.69-.59-.38-1.46-1-.87-5,4.27-6.2,10.15-6,16C297.39,15.5,298.85,15.5,298.8,14.7Z" transform="translate(-1 5.04)"/><ellipse cx="321.46" cy="49.13" rx="1.89" ry="3.99"/><ellipse cx="326.22" cy="49.95" rx="0.96" ry="1.6"/><path class="cls-2" d="M277.53,96.67c-21.2,17.37-37.42,53.88-21.7,85.46,0,0,67,27.75,103.64-7.53,2.39,0,5.22-57.48-24.52-75.67Z" transform="translate(-1 5.04)"/><path d="M312.44,98.74a28.36,28.36,0,0,0,12.49,0,18.91,18.91,0,0,0,5.29-1.55,51.21,51.21,0,0,1,5.38-3.54c1.1-.43.22-2-.91-1.57a15.62,15.62,0,0,0-3.35,2,14,14,0,0,1-5.84,2.65A28,28,0,0,1,313,97a1,1,0,0,0-1.17.62A.9.9,0,0,0,312.44,98.74Z" transform="translate(-1 5.04)"/><path class="cls-2" d="M267.15,214.53s15.81-8.37,16.44,12.41c6,17.52,19.14,33.22-53.54,55,10.12,4.56,17.61,7.37,18,9.47s-6.32,14.49-14.24,9.52c0,0-35.1-40.28-30.62-37.65C242.63,287,313.06,251.26,267.15,214.53Z" transform="translate(-1 5.04)"/><path class="cls-2" d="M316.34,210.26s3-14.47,18.54.25c15.5,24.53,29.76,30.19,8.64,80.12,0,0,30-7.94,31-3.81-.91-2.08,9.57-1.94,2,12.94,0,0-59.45-3.79-53.88-4.56C351.17,291.63,349.31,211.9,316.34,210.26Z" transform="translate(-1 5.04)"/><path class="cls-3" d="M252.39,176.33s76.75,18.26,109.41-6.09c0,0,9.16,25.67-3,39.25-1.72,3.13-8.3,7.3-12.68,8.72,0,0-37.51,16.75-68.66,3.4,0,0-1.48-5-14.57-6C262.94,215.55,246.84,208.48,252.39,176.33Z" transform="translate(-1 5.04)"/><path class="cls-4" d="M333.59,109.89c-23.89,36.13,24.3,65.29,40.94,36.78,0,0-.89-13.39,4.89-14.59s2.06,16.23,2.06,16.23S397.66,154,392,158.43,379.89,156,379.89,156s-2.5,11.12-6.37,6.4,0-10.4,0-10.4c-14.78,42.74-74.81-5-51.87-44.52Z" transform="translate(-1 5.04)"/><path class="cls-2" d="M281.36,152.25c-3.83-19.92-59.21-22.29-53.3,8.24,0,0,10.72,7.26,8.4,12.25s-13.57-8.06-13.57-8.06-13.57,8.74-13.68,1.87,8.68-7.62,8.68-7.62-7.18-8.44-1.27-8.56,8,6.18,8,6.18C229.4,115.29,253,124.09,281.19,145Z" transform="translate(-1 5.04)"/><path d="M342.13,134.91c-.79,1.07.74,2.28,2.39,1.94a2.3,2.3,0,0,0,2-2.6,2.22,2.22,0,0,0-.32-.84.73.73,0,0,0-.84-.3.43.43,0,0,0-.43.59c.26.62.53,1.46-.24,2a1.21,1.21,0,0,1-.93.23.4.4,0,0,1-.41-.52h0a.4.4,0,0,0-.1-.57.44.44,0,0,0-.14-.07.82.82,0,0,0-.91.18h0Z" transform="translate(-1 5.04)"/><path d="M334.14,143.65c10.46,3.77,19.14-.16,22.82-10.31.45-1.26-1.39-3.35-1.84-2.08-3.3,9.54-11.39,13.28-21.1,9.79-1.32-.41-1.12,2.28.14,2.6Z" transform="translate(-1 5.04)"/></g><g id="Layer_3" data-name="Layer 3"><path class="cls-2" d="M503.26,8.45c-4.88-2.74-74.87,18.23-46.76,66,0,0,73.77,40.06,108.48-7.85C568.59,63.45,568.08,15.06,503.26,8.45Z" transform="translate(-1 5.04)"/><path class="cls-2" d="M455.67,74c1.93,0,15.51,22.58,25.2,19.36,0,0,44.59,14.5,58.16,3.22s32.52-15.33,26.83-32.67S455.67,74,455.67,74Z" transform="translate(-1 5.04)"/><path d="M524.17,61.72c4.51-2.07,8.83,2.14,13.42,2.14a7.4,7.4,0,0,0,4.17-1.36,10.7,10.7,0,0,1,7.32-2.44c1,0,1-1.17,0-1.27a11.08,11.08,0,0,0-5.64,1c-1,.46-1.71,1.17-2.61,1.73a6.64,6.64,0,0,1-5.37.76c-4.12-.92-7.64-3.66-12-1.68-.85.37,0,1.47.76,1.11Z" transform="translate(-1 5.04)"/><path d="M508.29,9.35a8.79,8.79,0,0,1,1.56-7.48c.61-.62-.46-1.52-1-.87a9.7,9.7,0,0,0-2,8.26C506.82,10.15,508.41,10.15,508.29,9.35Z" transform="translate(-1 5.04)"/><path d="M492.09,77.54a29.39,29.39,0,0,1,10.71.6c3,.87,5.64,2.3,8.59,3.25a31.1,31.1,0,0,0,17.22.16A70,70,0,0,0,537,78.09a43,43,0,0,1,9.76-2.88,52.68,52.68,0,0,1,9.76-.62A5.51,5.51,0,0,0,561.35,73c.56-.67-.76-1.31-1.32-.62-1,1.27-3.17.92-4.68.92s-2.9,0-4.32.12a45,45,0,0,0-7.88,1.31c-5.73,1.47-10.49,4.77-16.27,6A29.92,29.92,0,0,1,508.75,79a26.69,26.69,0,0,0-16.32-2.6.65.65,0,0,0-.79.43A.61.61,0,0,0,492.09,77.54Z" transform="translate(-1 5.04)"/><path d="M492.33,77.84a4.36,4.36,0,0,1,0-2.88.62.62,0,0,0-.46-.77l-.08,0a.79.79,0,0,0-.93.44,5.36,5.36,0,0,0,0,3.55c.29.76,1.76.41,1.46-.35Z" transform="translate(-1 5.04)"/><path d="M503.26,11.26C503,5.73,504.12.11,508.9-4c.71-.6-.39-1.47-1-.87-5.07,4.31-6.32,10.24-6.07,16.12C501.82,12.06,503.31,12.06,503.26,11.26Z" transform="translate(-1 5.04)"/><ellipse cx="526.39" cy="45.95" rx="1.93" ry="4.03"/><ellipse cx="531.24" cy="46.77" rx="0.98" ry="1.61"/><path class="cls-2" d="M481.58,94c-21.61,17.52-38.15,54.35-22.13,86.22,0,0,68.3,28,105.67-7.6,2.44,0,5.32-58-25-76.34Z" transform="translate(-1 5.04)"/><path class="cls-2" d="M535.93,107c-21.13,11.1,10,62.53,42.3,45.51,0,0,2-12.55,9.27-12.34s-1.17,15.42-1.17,15.42,18.59,9,10.56,11.79-14.29-5-14.29-5-5.59,9.72-9.27,4.42,2.44-9.65,2.44-9.65c-51.47,11.4-55.57-13.51-48.3-47.17Z" transform="translate(-1 5.04)"/><path d="M517.17,96a29.22,29.22,0,0,0,12.73,0,19.43,19.43,0,0,0,5.39-1.57,52.27,52.27,0,0,1,5.49-3.57c1.12-.44.22-2-.93-1.59a16,16,0,0,0-3.42,2,14.38,14.38,0,0,1-6,2.67,28.85,28.85,0,0,1-12.78.25,1,1,0,0,0-1.2.62A.9.9,0,0,0,517.17,96Z" transform="translate(-1 5.04)"/><path class="cls-2" d="M473.4,187.12s14.44-8.75,12.2,12.85c-2.78,26.31-41.84,62.73-49.89,66.4-7.12,3.22,34.3,15.17,35.08,16.28,5.12,7.25-33.35,24-42.1,11.17-10.2-14.92-15-32.71-9.93-32.67C428.93,271.47,494.41,208,473.4,187.12Z" transform="translate(-1 5.04)"/><path class="cls-2" d="M527.93,222.87s-20.78-42.59-4.88-26.2c37.42,29.38,84.72,6.31,17.08,63,0,0,23.39,13.81,24.39,18.42,0,9.21-4.88,6.91-9.76,6.91,0,0-42.35-32.23-41.47-32.23C542.83,253,595.37,224.21,527.93,222.87Z" transform="translate(-1 5.04)"/><path class="cls-3" d="M455.94,174.32s78.26,18.42,111.55-6.15c0,0,9.34,25.9-3,39.6-1.76,3.15-8.46,7.37-12.93,8.79,0,0-38.25,16.9-70,3.43,0,0-1.51-5.09-14.86-6.05C466.7,213.9,450.28,206.76,455.94,174.32Z" transform="translate(-1 5.04)"/><path class="cls-4" d="M513.29,119.28c-5.68-7.44-62.28,23.55-36.59,65.08,0,0,13.34-1.77,15,6.38s-16.1,3.55-16.1,3.55-4.44,23.41-9.32,15.4,1.44-17.38,1.44-17.38-11.39-3.13-6.93-8.86,10.49-.39,10.49-.39c-19.81-51.48,6.56-63.1,35.76-68.26C507.07,114.67,515.73,122.59,513.29,119.28Z" transform="translate(-1 5.04)"/><path d="M531.56,130.95c10.17,4.83,19.52,1.77,24.39-8,.61-1.22-1-3.5-1.63-2.3-4.42,9.21-13,12.16-22.52,7.69-1.27-.55-1.37,2.07-.15,2.62Z" transform="translate(-1 5.04)"/><path d="M542.56,122.84c-1,.87.15,2.3,1.76,2.44a2.39,2.39,0,0,0,2.56-3,.73.73,0,0,0-.76-.48c-.37,0-.63.21-.59.48,0,.67.15,1.57-.76,1.91a1.26,1.26,0,0,1-1,0c-.29-.14-.41-.39-.27-.6h0a.4.4,0,0,0,.12-.57.43.43,0,0,0-.12-.12.84.84,0,0,0-1,0h0Z" transform="translate(-1 5.04)"/></g><g id="Layer_8" data-name="Layer 8"><path class="cls-2" d="M693.2,10.64c-4.77-2.7-73.13,18-45.68,65,0,0,72.06,39.48,106-7.74C757,64.84,756.51,17.15,693.2,10.64Z" transform="translate(-1 5.04)"/><path class="cls-2" d="M646.71,75.23c1.88,0,15.15,22.26,24.61,19.08,0,0,43.56,14.29,56.81,3.18s31.76-15.11,26.21-32.19S646.71,75.23,646.71,75.23Z" transform="translate(-1 5.04)"/><path d="M713.62,63.14c4.41-2,8.63,2.11,13.11,2.11a7.19,7.19,0,0,0,4.07-1.34A10.39,10.39,0,0,1,738,61.5c.93,0,.93-1.16,0-1.25a10.74,10.74,0,0,0-5.5,1c-.93.45-1.67,1.16-2.55,1.7a6.43,6.43,0,0,1-5.24.75c-4-.91-7.46-3.61-11.68-1.66-.83.36,0,1.45.74,1.09Z" transform="translate(-1 5.04)"/><path d="M698.11,11.52a8.73,8.73,0,0,1,1.52-7.37c.6-.61-.45-1.5-1-.86a9.62,9.62,0,0,0-2,8.14C696.68,12.32,698.23,12.32,698.11,11.52Z" transform="translate(-1 5.04)"/><path d="M682.29,78.72a28.46,28.46,0,0,1,10.46.59c2.91.86,5.5,2.27,8.39,3.2a30.12,30.12,0,0,0,16.82.16,68,68,0,0,0,8.15-3.4,41.75,41.75,0,0,1,9.53-2.84,51,51,0,0,1,9.53-.61,5.35,5.35,0,0,0,4.77-1.54c.55-.66-.74-1.29-1.29-.61-.93,1.25-3.1.91-4.57.91s-2.84,0-4.22.11a43.62,43.62,0,0,0-7.7,1.29c-5.6,1.45-10.25,4.7-15.89,5.94a29,29,0,0,1-17.7-1.79,25.87,25.87,0,0,0-15.94-2.56.63.63,0,0,0-.77.42A.6.6,0,0,0,682.29,78.72Z" transform="translate(-1 5.04)"/><path d="M682.53,79a4.33,4.33,0,0,1,0-2.84.61.61,0,0,0-.45-.76l-.08,0a.77.77,0,0,0-.91.43,5.33,5.33,0,0,0,0,3.49c.29.75,1.72.41,1.43-.34Z" transform="translate(-1 5.04)"/><path d="M693.2,13.4c-.24-5.45.83-11,5.5-15,.69-.59-.38-1.45-1-.86-5,4.24-6.17,10.1-5.93,15.88C691.8,14.2,693.25,14.2,693.2,13.4Z" transform="translate(-1 5.04)"/><ellipse cx="715.77" cy="47.66" rx="1.88" ry="3.97"/><ellipse cx="720.51" cy="48.48" rx="0.95" ry="1.59"/><path class="cls-2" d="M672,94.9c-21.11,17.27-37.27,53.57-21.61,85,0,0,66.72,27.59,103.22-7.49,2.38,0,5.19-57.15-24.42-75.23Z" transform="translate(-1 5.04)"/><path class="cls-2" d="M711,119.33c-7.43,21.3,50.9,39.14,62.26,6.49,0,0-7.36-10.35-1.93-14.79s9.94,12,9.94,12,19.73-5.1,15.85,1.93-13.8,5.33-13.8,5.33,2.76,10.57-3.6,9.08-5-8.51-5-8.51c-29,40.57-49.39,25-67.69-4Z" transform="translate(-1 5.04)"/><path d="M706.78,97a28.29,28.29,0,0,0,12.44,0,18.85,18.85,0,0,0,5.27-1.54,51,51,0,0,1,5.36-3.52c1.1-.43.21-2-.91-1.57a15.56,15.56,0,0,0-3.34,2A14,14,0,0,1,719.79,95a27.94,27.94,0,0,1-12.49.25,1,1,0,0,0-1.17.61A.89.89,0,0,0,706.78,97Z" transform="translate(-1 5.04)"/><path class="cls-2" d="M654.82,174.31s9.75-14.82,17.47,6.33c9.53,25.75-11.06,77.68-17.06,84.83-5.31,6.31,39.65-1.75,40.91-1.09,8.2,4.38-20.75,37.71-35,29.86-16.56-9.08-29.36-23.48-24.45-25.8C651.17,273.43,684.39,184.09,654.82,174.31Z" transform="translate(-1 5.04)"/><path class="cls-2" d="M713.05,207.84s3-14.38,18.47.25c15.44,24.39,29.64,30,8.6,79.66,0,0,29.88-7.9,30.86-3.79-.91-2.06,9.53-1.93,2,12.86,0,0-59.21-3.77-53.66-4.54C747.74,288.74,745.89,209.47,713.05,207.84Z" transform="translate(-1 5.04)"/><path class="cls-3" d="M647,174.1s76.44,18.15,109-6.06c0,0,9.13,25.52-3,39-1.72,3.11-8.27,7.26-12.63,8.67,0,0-37.36,16.65-68.39,3.38,0,0-1.48-5-14.51-6C657.48,213.1,641.45,206.07,647,174.1Z" transform="translate(-1 5.04)"/><path class="cls-4" d="M708.67,139.3c-.67-9.08-64.55-10.75-65.84,36.62,0,0,12.06,5,9,12.71s-15.3-4.9-15.3-4.9-16.44,17.45-16.13,8.35,10.67-13.86,10.67-13.86-7.77-8.19-.93-10.82,8.94,4.81,8.94,4.81c11.58-52.84,39.84-49.66,66.88-39.7C706,132.47,709,143.32,708.67,139.3Z" transform="translate(-1 5.04)"/><path d="M720.84,131.36c9.94,4.76,19.06,1.75,23.83-7.92.6-1.2-1-3.45-1.6-2.27-4.31,9.08-12.72,12-22,7.58-1.24-.54-1.33,2-.14,2.59Z" transform="translate(-1 5.04)"/><path d="M731.59,123.37c-1,.86.14,2.27,1.72,2.4a2.35,2.35,0,0,0,2.5-2.95.71.71,0,0,0-.74-.48c-.36,0-.62.2-.57.48,0,.66.14,1.54-.74,1.88a1.22,1.22,0,0,1-1,0c-.29-.14-.41-.39-.26-.59h0a.4.4,0,0,0,.12-.57.42.42,0,0,0-.12-.11.82.82,0,0,0-.93,0h0Z" transform="translate(-1 5.04)"/></g><g id="Layer_9" data-name="Layer 9"><path class="cls-2" d="M904.65,10.76C899.35,8,823.36,28.9,853.87,76.4c0,0,80.1,39.85,117.79-7.81C975.59,65.47,975,17.33,904.65,10.76Z" transform="translate(-1 5.04)"/><path class="cls-2" d="M853,76c2.09,0,16.85,22.47,27.36,19.26,0,0,48.42,14.43,63.15,3.21s35.31-15.25,29.14-32.5S853,76,853,76Z" transform="translate(-1 5.04)"/><path d="M927.35,63.76c4.9-2.06,9.59,2.13,14.57,2.13a8.54,8.54,0,0,0,4.53-1.35,12.32,12.32,0,0,1,7.95-2.43c1,0,1-1.17,0-1.26a13,13,0,0,0-6.12,1c-1,.46-1.85,1.17-2.83,1.72a7.78,7.78,0,0,1-5.83.76c-4.48-.92-8.29-3.64-13-1.67-.93.37,0,1.47.82,1.1Z" transform="translate(-1 5.04)"/><path d="M910.11,11.65a8.18,8.18,0,0,1,1.7-7.44c.66-.62-.5-1.51-1.14-.87a9.05,9.05,0,0,0-2.17,8.22C908.52,12.46,910.24,12.46,910.11,11.65Z" transform="translate(-1 5.04)"/><path d="M892.52,79.49a34.77,34.77,0,0,1,11.63.6c3.23.87,6.12,2.29,9.32,3.23a36.74,36.74,0,0,0,18.7.16A80,80,0,0,0,941.23,80a50,50,0,0,1,10.6-2.86,62.35,62.35,0,0,1,10.6-.62,6.33,6.33,0,0,0,5.3-1.56c.61-.66-.82-1.31-1.43-.62-1,1.26-3.44.92-5.09.92s-3.15,0-4.69.11A53,53,0,0,0,948,76.72c-6.22,1.47-11.39,4.74-17.67,6a35.24,35.24,0,0,1-19.68-1.81,41.36,41.36,0,0,0-7.95-2.47,42.2,42.2,0,0,0-9.77-.11.72.72,0,0,0-.86.42A.6.6,0,0,0,892.52,79.49Z" transform="translate(-1 5.04)"/><path d="M892.79,79.79a4,4,0,0,1,0-2.86.61.61,0,0,0-.5-.76l-.09,0a.89.89,0,0,0-1,.44,4.91,4.91,0,0,0,0,3.53c.32.76,1.91.41,1.59-.34Z" transform="translate(-1 5.04)"/><path d="M904.65,13.56c-.26-5.5.93-11.08,6.12-15.14.77-.6-.42-1.47-1.14-.87-5.51,4.28-6.86,10.19-6.6,16C903.09,14.36,904.7,14.36,904.65,13.56Z" transform="translate(-1 5.04)"/><ellipse cx="929.85" cy="48.09" rx="2.09" ry="4.01"/><ellipse cx="935.12" cy="48.91" rx="1.06" ry="1.6"/><path class="cls-2" d="M881.1,95.82c-23.47,17.43-41.43,54.07-24,85.77,0,0,74.17,27.85,114.74-7.56,2.65,0,5.77-57.69-27.15-75.94Z" transform="translate(-1 5.04)"/><path d="M919.75,97.9a34.56,34.56,0,0,0,13.83,0,22.58,22.58,0,0,0,5.85-1.56,57.56,57.56,0,0,1,6-3.55c1.22-.44.24-2-1-1.58a17.72,17.72,0,0,0-3.71,2,16.33,16.33,0,0,1-6.46,2.66,34.12,34.12,0,0,1-13.88.25,1.08,1.08,0,0,0-1.3.62A.9.9,0,0,0,919.75,97.9Z" transform="translate(-1 5.04)"/><path class="cls-2" d="M926.72,209.82s3.34-14.52,20.53.25c17.16,24.62,33,30.3,9.56,80.41,0,0,33.22-8,34.3-3.82-1-2.08,10.6-1.95,2.25,13,0,0-65.82-3.8-59.65-4.58C965.28,291.49,963.22,211.47,926.72,209.82Z" transform="translate(-1 5.04)"/><path class="cls-2" d="M866.93,210.87s16.9-9.3,19,11.45c7.81,17.22,23.39,32.2-55.33,58.17,11.5,3.94,20,6.37,20.61,8.45s-6,14.89-15.07,10.35c0,0-41.59-38.34-36.45-36C844.87,285,920.23,245,866.93,210.87Z" transform="translate(-1 5.04)"/><path class="cls-3" d="M853.27,175.77s85,18.32,121.13-6.11c0,0,10.14,25.76-3.28,39.39-1.91,3.14-9.19,7.33-14,8.75,0,0-41.53,16.81-76,3.41,0,0-1.64-5.06-16.13-6C864.95,215.13,847.12,208,853.27,175.77Z" transform="translate(-1 5.04)"/><path class="cls-4" d="M915.54,123.3C905.08,122,888,181.63,941.76,193c0,0,8.61-10.24,16.63-5.73s-9.22,13.33-9.22,13.33,16,19.19,5.72,16.95-13.24-13-13.24-13-11.18,5.54-12.56-1.47,7.63-7.4,7.63-7.4c-57.53-22.21-47.25-48.09-29.51-71.34C907.12,124.35,920.2,123.85,915.54,123.3Z" transform="translate(-1 5.04)"/><path d="M935.38,132.62c11,4.81,21.19,1.76,26.49-8,.66-1.21-1.14-3.48-1.77-2.29-4.79,9.16-14.14,12.09-24.45,7.65-1.38-.55-1.48,2.06-.16,2.61Z" transform="translate(-1 5.04)"/><path d="M947.32,124.56c-1.14.87.16,2.29,1.91,2.43,2.44,0,3-1.63,2.78-3a.8.8,0,0,0-.82-.48c-.4,0-.69.21-.64.48,0,.66.16,1.56-.82,1.9a1.48,1.48,0,0,1-1.06,0c-.32-.14-.45-.39-.29-.6h0a.38.38,0,0,0,.13-.57.45.45,0,0,0-.13-.12,1,1,0,0,0-1,0h0Z" transform="translate(-1 5.04)"/></g><g id="Layer_10" data-name="Layer 10"><g id="Layer_1-2-2" data-name="Layer 1-2"><path class="cls-2" d="M103.33,313.31c-5.11-2.71-78.38,18-49,65.17,0,0,77.23,39.56,113.57-7.75C171.72,367.59,171.19,319.79,103.33,313.31Z" transform="translate(-1 5.04)"/><path class="cls-2" d="M53.5,378c2,0,16.24,22.31,26.38,19.12,0,0,46.69,14.32,60.89,3.18s34-15.14,28.09-32.27S53.5,378,53.5,378Z" transform="translate(-1 5.04)"/><path d="M112.45,363.33c4.72-2,9.25,2.11,14,2.11a8.07,8.07,0,0,0,4.37-1.34,11.64,11.64,0,0,1,7.66-2.41c1,0,1-1.16,0-1.25a12.21,12.21,0,0,0-5.9,1q-1.41.79-2.73,1.71a7.31,7.31,0,0,1-5.62.75c-4.32-.91-8-3.62-12.51-1.66-.89.36,0,1.46.79,1.09Z" transform="translate(-1 5.04)"/><path d="M108.59,314.15a8.3,8.3,0,0,1,1.63-7.39c.64-.61-.49-1.5-1.1-.86a9.18,9.18,0,0,0-2.09,8.16C107.06,314.95,108.72,314.95,108.59,314.15Z" transform="translate(-1 5.04)"/><path d="M86.52,379.25a32.58,32.58,0,0,1,11.21.59c3.12.86,5.9,2.27,9,3.21a34.44,34.44,0,0,0,18,.16,75.79,75.79,0,0,0,8.73-3.41A47.11,47.11,0,0,1,143.71,377a58.41,58.41,0,0,1,10.22-.61,6,6,0,0,0,5.11-1.55c.59-.66-.79-1.3-1.38-.61-1,1.25-3.32.91-4.9.91h-4.52a49.73,49.73,0,0,0-8.25,1.3c-6,1.46-11,4.71-17,6a33.06,33.06,0,0,1-19.33-1.8,39,39,0,0,0-7.66-2.46,39.52,39.52,0,0,0-9.42,0,.66.66,0,0,0-.76.49.6.6,0,0,0,.51.67Z" transform="translate(-1 5.04)"/><path d="M86.91,379.52a4.08,4.08,0,0,1,0-2.84.61.61,0,0,0-.49-.75h0a.85.85,0,0,0-1,.43,5,5,0,0,0,0,3.5c.31.75,1.84.41,1.53-.34Z" transform="translate(-1 5.04)"/><path d="M103.33,316c-.26-5.46.89-11,5.9-15,.74-.59-.41-1.46-1.1-.86-5.31,4.25-6.61,10.12-6.36,15.92C101.82,316.83,103.38,316.83,103.33,316Z" transform="translate(-1 5.04)"/><ellipse cx="119.95" cy="350.36" rx="2.02" ry="3.98"/><ellipse cx="127.59" cy="351.18" rx="1.02" ry="1.59"/><path class="cls-2" d="M83.18,390.89C60.55,408.2,43.24,444.58,60,476c0,0,71.51,27.65,110.64-7.5,2.55,0,5.57-57.19-26.18-75.38Z" transform="translate(-1 5.04)"/><path class="cls-2" d="M59.73,504.1s15.32-11.73,21.5,9.48c11.19,16.83,29.83,30.36-45.15,67.12,12.44,2.61,21.48,4.07,22.5,6.16S55.34,603,45.25,599.49c0,0-49.47-34.43-43.8-32.61C51.36,583.5,120.31,532.75,59.73,504.1Z" transform="translate(-1 5.04)"/><path class="cls-2" d="M102.79,493.39s-.56-18.65,19.51-3c22.81,27.83,39.28,32.38,30.44,98.32,0,0,29.34-15.26,31.46-10.25-1.51-2.41,9.53-4.12,5.59,15.76,0,0-63.34,5.89-57.69,4C161,588.6,137.81,489.55,102.79,493.39Z" transform="translate(-1 5.04)"/><path class="cls-3" d="M58.81,475s76.26,15.48,111.12-8.89c0,0,15.32,28.38,2.55,41.91-1.84,3.12-8.86,7.28-13.54,8.69,0,0-40,16.69-73.3,3.39,0,0-1.58-5-15.55-6C70.15,514.18,53,507.13,58.81,475Z" transform="translate(-1 5.04)"/><path d="M107.49,393.73a32.2,32.2,0,0,0,13.2,1.59,21.69,21.69,0,0,0,5.9-.84,57.44,57.44,0,0,1,6.28-2.8c1.23-.3.54-2-.72-1.68a17.58,17.58,0,0,0-3.83,1.57,16,16,0,0,1-6.56,1.86,31.85,31.85,0,0,1-13.31-1.34,1.11,1.11,0,0,0-1.4.39A.88.88,0,0,0,107.49,393.73Z" transform="translate(-1 5.04)"/><path class="cls-4" d="M89.77,426.11C86.17,417.63,20,433.46,34,479.3c0,0,14,1.55,13.36,9.73s-17.29-.52-17.29-.52-11.26,21.26-13.87,12.41,6.49-16.23,6.49-16.23-10.62-5.75-4.44-10.14S29,476.82,29,476.82c-5.11-54.09,24.8-58.64,55.8-56.53C84.76,420.29,91.38,429.89,89.77,426.11Z" transform="translate(-1 5.04)"/><path class="cls-2" d="M139.19,424.83C155.7,405,204.91,454.66,179.78,485c0,0-14-1.63-15.3,6.5s17,3.34,17,3.34,6,23.17,10.59,15.18-2.49-17.24-2.49-17.24,11.71-3.22,6.77-8.86-11-.27-11-.27c23-53.19-3.14-65.24-41.15-67.42Z" transform="translate(-1 5.04)"/><path d="M113.83,428.52c-1.1.86.15,2.27,1.84,2.41a2.46,2.46,0,0,0,2.67-2.17,2,2,0,0,0-.12-.79.77.77,0,0,0-.79-.48c-.38,0-.66.2-.61.48,0,.66.15,1.55-.79,1.89a1.39,1.39,0,0,1-1,0c-.31-.14-.43-.39-.28-.59h0a.38.38,0,0,0,.13-.57h0l-.13-.11a.93.93,0,0,0-1,0h0Z" transform="translate(-1 5.04)"/><path d="M102.23,435.21c10,5.82,20,3.77,26.28-5.34.77-1.14-.64-3.55-1.43-2.41C121.34,436,112,438,102.72,432.66c-1.25-.68-1.69,1.89-.49,2.57Z" transform="translate(-1 5.04)"/><path d="M135.43,428.39c10,5.82,20,3.77,26.28-5.34.77-1.14-.64-3.55-1.43-2.41-5.75,8.59-15.07,10.57-24.36,5.21-1.25-.68-1.69,1.89-.49,2.57Z" transform="translate(-1 5.04)"/><path d="M149.58,421.7c-1.1.86.15,2.27,1.84,2.41a2.46,2.46,0,0,0,2.67-2.17,2,2,0,0,0-.12-.79.77.77,0,0,0-.79-.48c-.38,0-.66.2-.61.48,0,.66.15,1.55-.79,1.89a1.39,1.39,0,0,1-1,0c-.31-.14-.43-.39-.28-.59h0a.38.38,0,0,0,.13-.57h0l-.13-.11a.93.93,0,0,0-1,0h0Z" transform="translate(-1 5.04)"/></g><g id="Layer_2-2" data-name="Layer 2-2"><path class="cls-2" d="M299.72,313.07c-4.92-2.68-75.54,17.83-47.18,64.53,0,0,74.43,39.18,109.45-7.68C365.64,366.81,365.12,319.49,299.72,313.07Z" transform="translate(-1 5.04)"/><path class="cls-2" d="M251.71,377.13c1.94,0,15.65,22.09,25.42,18.94,0,0,45,14.18,58.68,3.15s32.81-15,27.07-31.95S251.71,377.13,251.71,377.13Z" transform="translate(-1 5.04)"/><path d="M298.67,362.6c4.55-2,8.91,2.09,13.54,2.09a7.63,7.63,0,0,0,4.21-1.33A11,11,0,0,1,323.8,361c1,0,1-1.15,0-1.24a11.49,11.49,0,0,0-5.69,1q-1.36.78-2.63,1.69a6.88,6.88,0,0,1-5.41.74c-4.16-.9-7.7-3.58-12.06-1.64-.86.36,0,1.44.76,1.08Z" transform="translate(-1 5.04)"/><path d="M304.79,313.9a8.39,8.39,0,0,1,1.58-7.32c.62-.61-.47-1.49-1.06-.86a9.27,9.27,0,0,0-2,8.08C303.32,314.69,304.92,314.69,304.79,313.9Z" transform="translate(-1 5.04)"/><path d="M278.61,378.36a30.57,30.57,0,0,1,10.8.59c3,.86,5.69,2.25,8.66,3.17a32.33,32.33,0,0,0,17.38.16,71.88,71.88,0,0,0,8.42-3.38,44.46,44.46,0,0,1,9.84-2.81,54.8,54.8,0,0,1,9.84-.61,5.67,5.67,0,0,0,4.92-1.53c.57-.65-.76-1.28-1.33-.61-1,1.24-3.2.9-4.73.9h-4.36a46.74,46.74,0,0,0-7.95,1.28c-5.78,1.44-10.58,4.66-16.42,5.9a31.07,31.07,0,0,1-18.29-1.78,36.91,36.91,0,0,0-7.38-2.43,37.07,37.07,0,0,0-9.08,0,.66.66,0,0,0-.8.42.59.59,0,0,0,.46.73Z" transform="translate(-1 5.04)"/><path d="M279,378.63a4.14,4.14,0,0,1,0-2.81.6.6,0,0,0-.47-.74h0a.81.81,0,0,0-.94.43,5.09,5.09,0,0,0,0,3.47c.3.74,1.77.41,1.48-.34Z" transform="translate(-1 5.04)"/><path d="M299.72,315.77c-.25-5.4.86-10.9,5.69-14.88.71-.59-.39-1.44-1.06-.86-5.12,4.21-6.37,10-6.13,15.76C298.27,316.56,299.77,316.56,299.72,315.77Z" transform="translate(-1 5.04)"/><ellipse cx="305.86" cy="349.81" rx="1.94" ry="3.94"/><ellipse cx="313.22" cy="350.62" rx="0.98" ry="1.58"/><path class="cls-2" d="M277.84,396.65c-26.66,11.87-45.48,45.57-22.32,84.32,0,0,68.91,27.38,106.62-7.43,10.19-5.81,14.32-62.86-25.23-74.64Z" transform="translate(-1 5.04)"/><path class="cls-2" d="M259.76,510.35s7.72-12,17.58,3.86c-2.77,22.35-3.4,27.56-18.39,71.27,0,0,31.22-1,30.77,2.8-.19-2,9.88.21-2.35,11.61,0,0-55.4-14.4-49.84-14.49C252.53,585.11,279,515.85,259.76,510.35Z" transform="translate(-1 5.04)"/><path class="cls-2" d="M325.56,506.32s2.12-15.76,19-.52C352,532,353.71,538,358.66,591.72c0,0,30.22-9.84,31.48-5.4-1.06-2.25,9.6-2.57,3,13.85,0,0-61-.83-55.5-2.54C352.29,593.12,346.92,507.22,325.56,506.32Z" transform="translate(-1 5.04)"/><path class="cls-3" d="M251.9,475.18s79,18,112.55-6c0,0,9.43,25.33-3.05,38.73-1.77,3.08-8.54,7.2-13,8.6,0,0-38.59,16.53-70.64,3.35,0,0-1.53-5-15-5.92C262.83,514,246.27,507,251.9,475.18Z" transform="translate(-1 5.04)"/><path d="M296.38,393.25a30.3,30.3,0,0,0,12.75,1.26,20.34,20.34,0,0,0,5.59-1,54.26,54.26,0,0,1,5.91-2.93c1.18-.32.47-2-.74-1.64a16.6,16.6,0,0,0-3.64,1.64,15,15,0,0,1-6.28,2,30,30,0,0,1-12.85-1,1,1,0,0,0-1.18.68A.87.87,0,0,0,296.38,393.25Z" transform="translate(-1 5.04)"/><path class="cls-2" d="M274,416.84c-4.12-8-66.18,14.24-49.19,58.18,0,0,13.51.14,13.56,8.36s-16.61,1.22-16.61,1.22-9.08,22.14-12.3,13.67,5-16.8,5-16.8-10.6-4.62-5-9.59S219.76,473,219.76,473c-9.22-52.77,19.15-60.4,49-61.35C268.73,411.63,275.87,420.4,274,416.84Z" transform="translate(-1 5.04)"/><path class="cls-2" d="M330.07,426.7c12.18-22.2,67.41,17.61,48.73,51.61,0,0-13.56.86-13.41,9s16.69.29,16.69.29,9.6,21.55,12.63,12.95-5.29-16.35-5.29-16.35,10.56-5.18,4.92-9.82S383.9,476,383.9,476c12.8-55.86-14.05-63-50.48-58.54Z" transform="translate(-1 5.04)"/><path d="M282.77,424.9c-1.06.86.15,2.25,1.77,2.39a2.41,2.41,0,0,0,2.69-2,2.07,2.07,0,0,0-.11-.91.74.74,0,0,0-.76-.47c-.37,0-.64.2-.59.47,0,.65.15,1.53-.76,1.87a1.31,1.31,0,0,1-1,0c-.3-.14-.42-.38-.27-.59h0a.38.38,0,0,0,.12-.56h0l-.12-.11a.87.87,0,0,0-1,0h0Z" transform="translate(-1 5.04)"/><path d="M271.25,431.82c8.44,7.14,18.36,6.62,25.94-1.37.94-1,0-3.56-.91-2.57-7,7.54-16.22,8.13-24.1,1.51C271.1,428.55,270.24,431,271.25,431.82Z" transform="translate(-1 5.04)"/><path d="M315.55,431.82c8.44,7.14,18.36,6.62,25.94-1.37.94-1,0-3.56-.91-2.57-7,7.54-16.22,8.13-24.1,1.51C315.4,428.55,314.54,431,315.55,431.82Z" transform="translate(-1 5.04)"/><path d="M327.07,427.15c-1.06.86.15,2.25,1.77,2.39a2.41,2.41,0,0,0,2.69-2,2.07,2.07,0,0,0-.11-.91.74.74,0,0,0-.76-.47c-.37,0-.64.2-.59.47,0,.65.15,1.53-.76,1.87a1.31,1.31,0,0,1-1,0c-.3-.14-.42-.38-.27-.59h0a.38.38,0,0,0,.12-.56h0l-.12-.11a.87.87,0,0,0-1,0h0Z" transform="translate(-1 5.04)"/></g><g id="Layer_3-2" data-name="Layer 3-2"><path class="cls-2" d="M496.56,315.6C491.71,313,422.1,333,450.05,378.46c0,0,73.37,38.17,107.9-7.48C561.54,368,561,321.85,496.56,315.6Z" transform="translate(-1 5.04)"/><path class="cls-2" d="M449.23,379c1.92,0,15.43,21.52,25.06,18.45,0,0,44.35,13.82,57.85,3.07s32.34-14.61,26.69-31.13S449.23,379,449.23,379Z" transform="translate(-1 5.04)"/><path d="M495.52,366.85c4.49-2,8.78,2,13.35,2A7.58,7.58,0,0,0,513,367.6a11,11,0,0,1,7.28-2.33c.95,0,.95-1.12,0-1.21a11.45,11.45,0,0,0-5.6,1q-1.34.76-2.6,1.65a6.85,6.85,0,0,1-5.34.72c-4.1-.88-7.59-3.49-11.89-1.6-.85.35,0,1.4.75,1.05Z" transform="translate(-1 5.04)"/><path d="M501.56,316.41a8.1,8.1,0,0,1,1.55-7.13c.61-.59-.46-1.45-1-.83a9,9,0,0,0-2,7.87C500.11,317.17,501.68,317.17,501.56,316.41Z" transform="translate(-1 5.04)"/><path d="M475.75,382.21a30.49,30.49,0,0,1,10.65.57c3,.83,5.6,2.19,8.54,3.09a32.24,32.24,0,0,0,17.13.15,71.35,71.35,0,0,0,8.3-3.29,44.23,44.23,0,0,1,9.71-2.74,54.66,54.66,0,0,1,9.71-.59,5.63,5.63,0,0,0,4.85-1.49c.56-.64-.75-1.25-1.31-.59-.95,1.21-3.15.88-4.66.88h-4.29a46.59,46.59,0,0,0-7.84,1.25c-5.7,1.4-10.43,4.54-16.18,5.75a31,31,0,0,1-18-1.73,26.5,26.5,0,0,0-16.23-2.37.65.65,0,0,0-.79.41.58.58,0,0,0,.45.71Z" transform="translate(-1 5.04)"/><path d="M476.11,382.47a4,4,0,0,1,0-2.74.59.59,0,0,0-.46-.72h0a.8.8,0,0,0-.92.42,4.91,4.91,0,0,0,0,3.38c.29.72,1.75.39,1.46-.33Z" transform="translate(-1 5.04)"/><path d="M496.56,317.23c-.24-5.26.85-10.62,5.6-14.5.7-.57-.39-1.4-1-.83-5,4.1-6.28,9.76-6,15.35C495.13,318,496.61,318,496.56,317.23Z" transform="translate(-1 5.04)"/><ellipse cx="502.6" cy="354.52" rx="1.92" ry="3.84"/><ellipse cx="509.86" cy="355.31" rx="0.97" ry="1.54"/><path class="cls-2" d="M475,398c-26.28,11.56-44.84,44.4-22,82.15,0,0,67.94,26.67,105.11-7.24,10-5.66,14.12-61.24-24.87-72.72Z" transform="translate(-1 5.04)"/><path class="cls-2" d="M459.75,514.93s6.31-12.46,17.64,1.93c-.39,21.94-.46,27-10.6,70.94,0,0,30.5-4.19,30.45-.46-.39-1.89,9.71-.81-1.09,11.49,0,0-55.81-8.25-50.37-8.91C460.45,588.11,479.16,518.29,459.75,514.93Z" transform="translate(-1 5.04)"/><path class="cls-2" d="M528.93,506.87s2.09-15.35,18.76-.5c7.28,25.51,9,31.39,13.88,83.71,0,0,29.8-9.59,31-5.26-1-2.19,9.46-2.5,2.91,13.49,0,0-60.1-.81-54.71-2.48C555.28,591.43,550,507.75,528.93,506.87Z" transform="translate(-1 5.04)"/><path class="cls-3" d="M449.42,476.53s77.84,17.55,111-5.86c0,0,9.29,24.68-3,37.73-1.75,3-8.42,7-12.86,8.38,0,0-38,16.1-69.64,3.27,0,0-1.5-4.85-14.78-5.77C460.19,514.3,443.86,507.5,449.42,476.53Z" transform="translate(-1 5.04)"/><path d="M493.26,393.66a30.21,30.21,0,0,0,12.57,1.23,20.26,20.26,0,0,0,5.51-.94,53.75,53.75,0,0,1,5.82-2.85c1.16-.31.46-1.91-.73-1.6a16.46,16.46,0,0,0-3.59,1.6,14.92,14.92,0,0,1-6.19,2,29.87,29.87,0,0,1-12.67-1,1,1,0,0,0-1.16.66A.84.84,0,0,0,493.26,393.66Z" transform="translate(-1 5.04)"/><path class="cls-2" d="M472.74,420.95c-3.72-8-65.76,11.38-50.89,54.82,0,0,13.3.64,13,8.65s-16.4.56-16.4.56-9.88,21.22-12.68,12.85,5.62-16.17,5.62-16.17-10.24-4.9-4.57-9.53S417,473.58,417,473.58c-6.84-51.74,21.41-58.11,50.81-57.91C467.79,415.67,474.44,424.48,472.74,420.95Z" transform="translate(-1 5.04)"/><path class="cls-2" d="M526.48,429.3c12.13-21.63,66.46,17.15,48,50.28,0,0-13.37.83-13.22,8.77s16.45.29,16.45.29,9.46,21,12.45,12.61S585,485.33,585,485.33s10.41-5,4.85-9.56-10.29,1.6-10.29,1.6c12.62-54.42-13.85-61.42-49.77-57Z" transform="translate(-1 5.04)"/><path d="M479.85,427.55c-1,.83.15,2.19,1.75,2.33a2.37,2.37,0,0,0,2.65-2,2,2,0,0,0-.1-.88.73.73,0,0,0-.75-.46c-.36,0-.63.2-.58.46,0,.64.15,1.49-.75,1.82a1.3,1.3,0,0,1-1,0c-.29-.13-.41-.37-.27-.57h0a.37.37,0,0,0,.12-.55h0l-.12-.11a.87.87,0,0,0-.95,0h0Z" transform="translate(-1 5.04)"/><path d="M468.49,434.28c8.32,7,18.1,6.45,25.57-1.34.92-1,0-3.47-.9-2.5-6.92,7.35-16,7.92-23.75,1.47C468.35,431.1,467.5,433.47,468.49,434.28Z" transform="translate(-1 5.04)"/><path d="M512.17,434.28c8.32,7,18.1,6.45,25.57-1.34.92-1,0-3.47-.9-2.5-6.92,7.35-16,7.92-23.75,1.47C512,431.1,511.17,433.47,512.17,434.28Z" transform="translate(-1 5.04)"/><path d="M523.52,429.61c-1.12.75,0,2.19,1.55,2.43a2.32,2.32,0,0,0,2.77-2.68.71.71,0,0,0-.7-.53c-.36,0-.66.18-.63.42,0,.64,0,1.49-.9,1.75a1.3,1.3,0,0,1-1,0c-.29-.15-.39-.42-.22-.59h0a.37.37,0,0,0,.12-.55h0l-.12-.11a.87.87,0,0,0-.92,0h0Z" transform="translate(-1 5.04)"/></g><g id="Layer_4" data-name="Layer 4"><path class="cls-2" d="M696.57,312.37c-4.92-2.69-75.55,17.91-47.19,64.82,0,0,74.45,39.36,109.48-7.71C762.5,366.36,762,318.81,696.57,312.37Z" transform="translate(-1 5.04)"/><path class="cls-2" d="M648.54,376.71c1.94,0,15.66,22.19,25.43,19,0,0,45,14.25,58.69,3.17s32.82-15.06,27.08-32.1S648.54,376.71,648.54,376.71Z" transform="translate(-1 5.04)"/><path d="M695.51,362.13c4.55-2,8.91,2.1,13.54,2.1a7.61,7.61,0,0,0,4.21-1.33,11,11,0,0,1,7.39-2.4c1,0,1-1.15,0-1.24a11.45,11.45,0,0,0-5.69,1q-1.36.79-2.63,1.7a6.85,6.85,0,0,1-5.42.75c-4.16-.9-7.71-3.6-12.06-1.65-.86.36,0,1.45.76,1.09Z" transform="translate(-1 5.04)"/><path d="M701.64,313.2a8.46,8.46,0,0,1,1.58-7.35c.62-.61-.47-1.49-1.06-.86a9.34,9.34,0,0,0-2,8.12C700.16,314,701.76,314,701.64,313.2Z" transform="translate(-1 5.04)"/><path d="M675.45,378a30.45,30.45,0,0,1,10.81.59c3,.86,5.69,2.26,8.67,3.19a32.2,32.2,0,0,0,17.38.16,71.71,71.71,0,0,0,8.42-3.39,44.32,44.32,0,0,1,9.85-2.83,54.59,54.59,0,0,1,9.85-.61,5.65,5.65,0,0,0,4.92-1.54c.57-.66-.76-1.29-1.33-.61-1,1.24-3.2.9-4.73.9h-4.36a46.57,46.57,0,0,0-8,1.29c-5.79,1.45-10.59,4.68-16.42,5.93a31,31,0,0,1-18.29-1.79,26.51,26.51,0,0,0-16.47-2.44.66.66,0,0,0-.8.42.59.59,0,0,0,.46.74h0Z" transform="translate(-1 5.04)"/><path d="M675.81,378.23a4.18,4.18,0,0,1,0-2.83.61.61,0,0,0-.47-.75h0a.81.81,0,0,0-.94.43,5.14,5.14,0,0,0,0,3.48c.3.75,1.77.41,1.48-.34Z" transform="translate(-1 5.04)"/><path d="M696.57,315.08c-.25-5.43.86-10.95,5.69-15,.71-.59-.39-1.45-1.06-.86-5.12,4.23-6.38,10.07-6.13,15.83C695.12,315.87,696.62,315.87,696.57,315.08Z" transform="translate(-1 5.04)"/><ellipse cx="702.71" cy="349.25" rx="1.94" ry="3.96"/><ellipse cx="710.07" cy="350.06" rx="0.98" ry="1.58"/><path class="cls-2" d="M674.68,396.33C648,408.25,629.19,442.11,652.35,481c0,0,68.93,27.5,106.65-7.46,10.19-5.84,14.33-63.15-25.23-75Z" transform="translate(-1 5.04)"/><path class="cls-2" d="M679.53,511.72s-3.89-14.16-18.66.45c-4.23,23.91-5.24,29.4-4.06,78.24,0,0-30.67-7.42-31.41-3.37.79-2-9.85-1.79-1.3,12.62,0,0,59.53-3.73,54-5C663.21,591.32,658.63,513.55,679.53,511.72Z" transform="translate(-1 5.04)"/><path class="cls-2" d="M726.41,506.5s2.12-15.83,19-.52c7.39,26.31,9.13,32.37,14.08,86.31,0,0,30.23-9.88,31.49-5.43-1.06-2.26,9.6-2.58,3,13.91,0,0-61-.84-55.52-2.56C753.15,593.69,747.78,507.41,726.41,506.5Z" transform="translate(-1 5.04)"/><path class="cls-3" d="M648.73,475.22s79,18.09,112.58-6c0,0,9.43,25.45-3.05,38.9-9.85-1-17.6,6.79-22.16,8.07,0,0-29.54,17.17-61.55,3.91,0,0-1.53-5-15-5.95C659.66,514.17,643.1,507.16,648.73,475.22Z" transform="translate(-1 5.04)"/><path d="M693.22,392.92A30.19,30.19,0,0,0,706,394.19a20.26,20.26,0,0,0,5.59-1,54.17,54.17,0,0,1,5.91-2.94c1.18-.32.47-2-.74-1.65a16.57,16.57,0,0,0-3.64,1.65,15,15,0,0,1-6.28,2,29.84,29.84,0,0,1-12.85-1,1,1,0,0,0-1.18.68A.88.88,0,0,0,693.22,392.92Z" transform="translate(-1 5.04)"/><path class="cls-2" d="M670.06,416c-4.29-8-65.92,15.51-48,59.32,0,0,13.52-.11,13.73,8.15S619.19,485,619.19,485s-8.63,22.4-12,13.95,4.64-17,4.64-17-10.7-4.44-5.25-9.53,10.4.9,10.4.9c-10.29-52.82,17.93-61,47.74-62.5C664.7,410.89,672,419.57,670.06,416Z" transform="translate(-1 5.04)"/><path class="cls-2" d="M726.92,426.52c12.31-22.3,67.43,17.69,48.74,51.84,0,0-13.56.86-13.42,9s16.69.29,16.69.29,9.6,21.65,12.63,13-5.29-16.42-5.29-16.42,10.56-5.2,4.92-9.86-10.44,1.65-10.44,1.65c12.8-56.12-14.06-63.33-50.49-58.81Z" transform="translate(-1 5.04)"/><path d="M679.61,424.71c-1.06.86.15,2.26,1.77,2.4A2.39,2.39,0,0,0,684,425a2.09,2.09,0,0,0-.11-.79.74.74,0,0,0-.76-.48c-.37,0-.64.2-.59.48,0,.66.15,1.54-.76,1.88a1.3,1.3,0,0,1-1,0c-.3-.14-.42-.38-.27-.59h0a.39.39,0,0,0,.12-.56h0l-.12-.11a.87.87,0,0,0-1,0h0Z" transform="translate(-1 5.04)"/><path d="M668.08,431.66c8.44,7.17,18.37,6.65,25.95-1.38.94-1,0-3.57-.91-2.58-7,7.58-16.22,8.17-24.1,1.52C667.94,428.38,667.07,430.82,668.08,431.66Z" transform="translate(-1 5.04)"/><path d="M712.4,431.66c8.44,7.17,18.37,6.65,25.95-1.38.94-1,0-3.57-.91-2.58-7,7.58-16.22,8.17-24.1,1.52C712.25,428.38,711.39,430.82,712.4,431.66Z" transform="translate(-1 5.04)"/><path d="M723.92,426.84c-1.13.77,0,2.26,1.58,2.51a2.37,2.37,0,0,0,2.81-2.76.73.73,0,0,0-.71-.54c-.37,0-.66.18-.64.43,0,.66,0,1.54-.91,1.81a1.3,1.3,0,0,1-1,0c-.3-.16-.39-.43-.22-.61h0a.39.39,0,0,0,.12-.56h0l-.12-.11a.87.87,0,0,0-.94,0h0Z" transform="translate(-1 5.04)"/></g></g></g><g id="Layer_2-2-2" data-name="Layer 2"><path class="cls-5" d="M99.38,608.7c-5-2.73-76.78,18.17-48,65.73,0,0,75.65,39.91,111.25-7.82C166.37,663.49,165.85,615.28,99.38,608.7Z" transform="translate(-1 5.04)"/><path class="cls-5" d="M50.57,674c2,0,15.91,22.5,25.84,19.29,0,0,45.73,14.45,59.64,3.21s33.35-15.28,27.52-32.55S50.57,674,50.57,674Z" transform="translate(-1 5.04)"/><path d="M98.3,659.48c4.63-2.06,9.06,2.13,13.76,2.13a7.74,7.74,0,0,0,4.28-1.35,11.18,11.18,0,0,1,7.5-2.43c1,0,1-1.17,0-1.26a11.66,11.66,0,0,0-5.78,1c-1,.46-1.75,1.17-2.68,1.72a7,7,0,0,1-5.5.76c-4.23-.92-7.83-3.65-12.26-1.67-.88.37,0,1.47.78,1.1Z" transform="translate(-1 5.04)"/><path d="M104.53,609.59a8.57,8.57,0,0,1,1.6-7.45c.63-.62-.48-1.51-1.08-.87A9.45,9.45,0,0,0,103,609.5C103,610.39,104.66,610.39,104.53,609.59Z" transform="translate(-1 5.04)"/><path d="M77.91,675.23a31,31,0,0,1,11,.6c3.05.87,5.78,2.29,8.81,3.23a32.79,32.79,0,0,0,17.66.16,73,73,0,0,0,8.56-3.44,45.11,45.11,0,0,1,10-2.87,55.58,55.58,0,0,1,10-.62,5.75,5.75,0,0,0,5-1.56c.58-.67-.78-1.31-1.35-.62-1,1.26-3.25.92-4.8.92s-3,0-4.43.11a47.42,47.42,0,0,0-8.08,1.31c-5.88,1.47-10.76,4.75-16.69,6A31.52,31.52,0,0,1,95,676.65a37.46,37.46,0,0,0-7.5-2.48,37.6,37.6,0,0,0-9.23-.11.67.67,0,0,0-.81.42A.6.6,0,0,0,77.91,675.23Z" transform="translate(-1 5.04)"/><path d="M78.16,675.53a4.23,4.23,0,0,1,0-2.87.61.61,0,0,0-.47-.76l-.08,0a.82.82,0,0,0-1,.44,5.2,5.2,0,0,0,0,3.53c.3.76,1.8.41,1.5-.34Z" transform="translate(-1 5.04)"/><path d="M99.38,611.49c-.25-5.5.88-11.1,5.78-15.16.73-.6-.4-1.47-1.08-.87-5.2,4.29-6.48,10.21-6.23,16.06C97.9,612.3,99.43,612.3,99.38,611.49Z" transform="translate(-1 5.04)"/><ellipse cx="105.63" cy="646.07" rx="1.98" ry="4.01"/><ellipse cx="113.11" cy="646.9" rx="1" ry="1.61"/><path class="cls-5" d="M77.14,693.88C50,706,30.91,740.3,54.45,779.78c0,0,70,27.89,108.37-7.57,10.36-5.92,14.56-64-25.64-76Z" transform="translate(-1 5.04)"/><path class="cls-5" d="M87.14,811.91s-4-14.36-19,.46c-4.3,24.24-5.33,29.82-4.13,79.34,0,0-31.17-7.52-31.92-3.42.8-2-10-1.81-1.33,12.8,0,0,60.49-3.78,54.86-5C70.56,892.62,65.91,813.77,87.14,811.91Z" transform="translate(-1 5.04)"/><path class="cls-5" d="M132.75,805.6s2.15-16.06,19.34-.53c7.5,26.67,9.28,32.82,14.31,87.52,0,0,30.72-10,32-5.5-1.08-2.29,9.76-2.61,3,14.11,0,0-62-.85-56.41-2.59C159.92,894,154.46,806.52,132.75,805.6Z" transform="translate(-1 5.04)"/><path class="cls-3" d="M50.85,773.95s80.25,18.35,114.4-6.12c0,0,9.58,25.8-3.1,39.45-10-1-17.89,6.88-22.51,8.19,0,0-30,17.41-62.54,4,0,0-1.55-5.07-15.23-6C61.88,813.38,45,806.27,50.85,773.95Z" transform="translate(-1 5.04)"/><path d="M96,692.46a30.74,30.74,0,0,0,13,1.28,20.63,20.63,0,0,0,5.68-1,55.09,55.09,0,0,1,6-3c1.2-.32.48-2-.75-1.67a16.85,16.85,0,0,0-3.7,1.67,15.23,15.23,0,0,1-6.38,2,30.38,30.38,0,0,1-13.06-1C95.57,690.37,94.8,692,96,692.46Z" transform="translate(-1 5.04)"/><path class="cls-5" d="M112.17,760.84c4.46-8.18-52.26-41-80.06-.46,0,0,8,10.3.94,15.53S22,764.13,22,764.13s-24.65,7.11-19.25-.67,17.55-6.84,17.55-6.84-2.4-10.93,5.26-9.87,5.32,8.53,5.32,8.53C71,715,94.71,731.63,113.52,753.58,113.52,753.58,110.23,764.51,112.17,760.84Z" transform="translate(-1 5.04)"/><path class="cls-5" d="M102.16,737.88c-2.78-26,66.7-14.12,70.94,25.67,0,0-10.85,6.9-6,14.35s14.13-7.25,14.13-7.25,20.62,15.56,18.13,6.26-14-12.7-14-12.7,5.81-9.54-1.62-11.28-7.77,6.22-7.77,6.22c-21.94-57.31-48.6-51.85-76.45-31.28Z" transform="translate(-1 5.04)"/><path d="M82.14,722.66c-1.08.87.15,2.29,1.8,2.43a2.4,2.4,0,0,0,2.63-3,.75.75,0,0,0-.78-.48c-.38,0-.65.21-.6.48,0,.67.15,1.56-.78,1.9a1.33,1.33,0,0,1-1,0c-.3-.14-.43-.39-.28-.6h0a.39.39,0,0,0,.13-.57.43.43,0,0,0-.13-.12.89.89,0,0,0-1,0h0Z" transform="translate(-1 5.04)"/><path d="M70.43,729.71C79,737,89.1,736.45,96.8,728.31c1-1,0-3.62-.93-2.61-7.13,7.68-16.49,8.28-24.49,1.54C70.28,726.38,69.41,728.86,70.43,729.71Z" transform="translate(-1 5.04)"/><path d="M115.46,729.71c8.58,7.27,18.66,6.74,26.37-1.4,1-1,0-3.62-.93-2.61-7.13,7.68-16.49,8.28-24.49,1.54C115.31,726.38,114.44,728.86,115.46,729.71Z" transform="translate(-1 5.04)"/><path d="M127.17,724.82c-1.15.78,0,2.29,1.6,2.55a2.41,2.41,0,0,0,2.85-2.8.74.74,0,0,0-.73-.55c-.38,0-.68.18-.65.44,0,.67,0,1.56-.93,1.83a1.33,1.33,0,0,1-1,0c-.3-.16-.4-.44-.23-.62h0a.39.39,0,0,0,.13-.57.43.43,0,0,0-.13-.12.89.89,0,0,0-1,0h0Z" transform="translate(-1 5.04)"/></g><g id="Layer_3-2-2" data-name="Layer 3"><path class="cls-6" d="M291.6,613.38c-5-2.69-76.39,17.87-47.72,64.68,0,0,75.27,39.27,110.7-7.7C358.26,667.3,357.73,619.86,291.6,613.38Z" transform="translate(-1 5.04)"/><path class="cls-6" d="M243,677.63c2,0,15.83,22.14,25.71,19,0,0,45.5,14.22,59.34,3.16s33.18-15,27.38-32S243,677.63,243,677.63Z" transform="translate(-1 5.04)"/><path d="M290.53,663.35c4.61-2,9,2.1,13.69,2.1a7.76,7.76,0,0,0,4.26-1.33,11.21,11.21,0,0,1,7.47-2.39c1,0,1-1.15,0-1.24a11.71,11.71,0,0,0-5.75,1c-1,.45-1.74,1.15-2.66,1.69a7,7,0,0,1-5.48.74c-4.21-.9-7.79-3.59-12.2-1.65-.87.36,0,1.44.77,1.08Z" transform="translate(-1 5.04)"/><path d="M296.72,614.26a8.36,8.36,0,0,1,1.59-7.33c.62-.61-.47-1.49-1.07-.86a9.23,9.23,0,0,0-2,8.1C295.23,615.05,296.85,615.05,296.72,614.26Z" transform="translate(-1 5.04)"/><path d="M269.44,676.23a31,31,0,0,0,9.54-.45c2.65-.66,5-1.73,7.65-2.43a32.73,32.73,0,0,1,15.34-.12,69.37,69.37,0,0,1,7.43,2.59,43.92,43.92,0,0,0,8.69,2.16,55.63,55.63,0,0,0,8.69.47,5.51,5.51,0,0,1,4.35,1.17c.5.5-.67,1-1.17.47-.85-.95-2.82-.69-4.17-.69s-2.59,0-3.85-.09a47.08,47.08,0,0,1-7-1c-5.11-1.1-9.34-3.57-14.49-4.52a31.32,31.32,0,0,0-16.14,1.36,36.17,36.17,0,0,1-6.52,1.86,37.67,37.67,0,0,1-8,.09.6.6,0,0,1-.71-.32A.45.45,0,0,1,269.44,676.23Z" transform="translate(-1 5.04)"/><path d="M270.49,679.15a4.11,4.11,0,0,1,0-2.82.6.6,0,0,0-.47-.75l-.08,0a.82.82,0,0,0-.95.43,5.06,5.06,0,0,0,0,3.48c.3.74,1.79.41,1.49-.34Z" transform="translate(-1 5.04)"/><path d="M291.6,616.14c-.25-5.42.87-10.92,5.75-14.92.72-.59-.4-1.44-1.07-.86-5.18,4.22-6.45,10-6.2,15.8C290.13,616.93,291.65,616.93,291.6,616.14Z" transform="translate(-1 5.04)"/><ellipse cx="297.81" cy="650.24" rx="1.97" ry="3.95"/><ellipse cx="305.26" cy="651.05" rx="1" ry="1.58"/><path class="cls-6" d="M269.47,697.2c-27,11.89-46,45.68-22.58,84.52,0,0,69.7,27.44,107.83-7.45,10.31-5.82,14.49-63-25.51-74.81Z" transform="translate(-1 5.04)"/><path class="cls-6" d="M279.42,813.34s-3.93-14.13-18.87.45c-4.28,23.85-5.3,29.34-4.11,78.06,0,0-31-7.4-31.76-3.36.8-2-10-1.78-1.32,12.59,0,0,60.19-3.72,54.59-5C262.92,892.76,258.29,815.17,279.42,813.34Z" transform="translate(-1 5.04)"/><path class="cls-6" d="M324.8,807.13s2.14-15.8,19.24-.52c7.47,26.25,9.24,32.3,14.24,86.12,0,0,30.57-9.86,31.84-5.42-1.07-2.26,9.71-2.57,3,13.88,0,0-61.66-.84-56.13-2.55C351.83,894.13,346.41,808,324.8,807.13Z" transform="translate(-1 5.04)"/><path class="cls-3" d="M243.3,776s79.85,18.05,113.83-6c0,0,9.53,25.39-3.09,38.82-10-1-17.8,6.77-22.4,8.06,0,0-29.87,17.13-62.23,3.9,0,0-1.54-5-15.16-5.94C254.28,814.78,237.53,807.79,243.3,776Z" transform="translate(-1 5.04)"/><path d="M288.21,695.8a30.91,30.91,0,0,0,12.89,1.26,20.73,20.73,0,0,0,5.65-1,55.07,55.07,0,0,1,6-2.93c1.19-.32.47-2-.75-1.65a16.86,16.86,0,0,0-3.68,1.65,15.27,15.27,0,0,1-6.35,2,30.56,30.56,0,0,1-13-1C287.81,693.75,287,695.37,288.21,695.8Z" transform="translate(-1 5.04)"/><path class="cls-6" d="M273.16,763.23c-29.8.61-58.75-5.62-54.4-59.55,0,0-4.25,6.39-10.23,1.65s4.15-10,4.15-10-8.93-8-6.5-16.75,13.5,13.19,13.5,13.19,15.95-8,16.65.36-12.74,9.18-12.74,9.18c-12.91,45.4,51,64.68,54.33,56.34C279.46,754,273.16,763.23,273.16,763.23Z" transform="translate(-1 5.04)"/><path class="cls-6" d="M302.23,740.62c31.83,17.41,59.91,20.59,72.57-35.46,0,0,1.7,7.53,9,5.31s-.26-10.82-.26-10.82,11.12-4.09,12.09-13.11-17.41,7.31-17.41,7.31-11.9-13.25-15.62-5.81,8.49,13.17,8.49,13.17c2.4,38.08-66.34,54.57-67.9,29.72Z" transform="translate(-1 5.04)"/><path d="M274.44,725.53c-1.07.86.15,2.26,1.79,2.39a2.37,2.37,0,0,0,2.61-2.93.75.75,0,0,0-.77-.47c-.37,0-.65.2-.6.47,0,.65.15,1.53-.77,1.87a1.33,1.33,0,0,1-1,0c-.3-.14-.42-.38-.27-.59h0a.38.38,0,0,0,.13-.56.43.43,0,0,0-.13-.11.89.89,0,0,0-1,0h0Z" transform="translate(-1 5.04)"/><path d="M262.8,732.45c8.54,7.15,18.57,6.64,26.24-1.38.95-1,0-3.57-.92-2.57-7.09,7.56-16.4,8.15-24.37,1.51C262.65,729.18,261.77,731.62,262.8,732.45Z" transform="translate(-1 5.04)"/><path d="M307.6,732.45c8.54,7.15,18.57,6.64,26.24-1.38.95-1,0-3.57-.92-2.57-7.09,7.56-16.4,8.15-24.37,1.51C307.45,729.18,306.58,731.62,307.6,732.45Z" transform="translate(-1 5.04)"/><path d="M319.25,727.65c-1.15.77,0,2.26,1.59,2.51a2.38,2.38,0,0,0,2.84-2.75.73.73,0,0,0-.72-.54c-.37,0-.67.18-.65.43,0,.65,0,1.53-.92,1.81a1.33,1.33,0,0,1-1,0c-.3-.16-.4-.43-.22-.61h0a.38.38,0,0,0,.13-.56.43.43,0,0,0-.13-.11.89.89,0,0,0-.95,0h0Z" transform="translate(-1 5.04)"/></g><g id="Layer_4-2" data-name="Layer 4"><path class="cls-7" d="M487.1,613.38c-5-2.69-76.39,17.87-47.72,64.68,0,0,75.27,39.27,110.7-7.7C553.76,667.3,553.24,619.86,487.1,613.38Z" transform="translate(-1 5.04)"/><path class="cls-7" d="M441.32,680.8c2,0,15.83,22.14,25.71,19,0,0,45.5,14.22,59.34,3.16s33.18-15,27.38-32S441.32,680.8,441.32,680.8Z" transform="translate(-1 5.04)"/><path d="M482.76,661.42c5.15-2,10.07,2.11,15.3,2.11a9.36,9.36,0,0,0,4.76-1.34,13.48,13.48,0,0,1,8.35-2.41c1.09,0,1.09-1.16,0-1.25a14.38,14.38,0,0,0-6.43,1c-1.09.45-1.95,1.16-3,1.7a8.59,8.59,0,0,1-6.12.75c-4.7-.91-8.71-3.61-13.63-1.66-1,.36,0,1.45.86,1.09Z" transform="translate(-1 5.04)"/><path d="M489.69,612a7.77,7.77,0,0,1,1.78-7.38c.7-.61-.53-1.5-1.2-.86a8.63,8.63,0,0,0-2.28,8.15C488,612.82,489.83,612.82,489.69,612Z" transform="translate(-1 5.04)"/><path d="M459.28,679.38a20.83,20.83,0,0,0,10.12-1.47c2.72-1.32,5.06-3.32,7.75-4.73a22.29,22.29,0,0,1,16.38-1.33,61.28,61.28,0,0,1,8.4,3.89,34.71,34.71,0,0,0,9.67,3.06A37.78,37.78,0,0,0,521,679a4.63,4.63,0,0,1,4.85,1.69.74.74,0,1,1-1.17.88c-1.07-1.56-3.14-1-4.58-.88a37.52,37.52,0,0,1-4.13.13,33.64,33.64,0,0,1-7.68-1.17c-5.65-1.52-10.62-5.44-16.29-6.69a21.52,21.52,0,0,0-17,3.52,27.56,27.56,0,0,1-6.64,3.67,25.21,25.21,0,0,1-8.56.74.64.64,0,0,1-.81-.5A.8.8,0,0,1,459.28,679.38Z" transform="translate(-1 5.04)"/><path d="M484,613.91c-.28-5.45,1-11,6.43-15,.81-.59-.45-1.45-1.2-.86-5.79,4.25-7.21,10.11-6.93,15.9C482.32,614.7,484,614.7,484,613.91Z" transform="translate(-1 5.04)"/><path class="cls-7" d="M464.42,693.65c-27,11.89-46,45.68-22.58,84.52,0,0,69.7,27.44,107.83-7.45,10.31-5.82,14.49-63-25.51-74.81Z" transform="translate(-1 5.04)"/><path class="cls-7" d="M470.35,812.36s-4.4-14.22-21.09.45c-4.79,24-5.93,29.52-4.59,78.56,0,0-34.67-7.45-35.5-3.38.89-2-11.13-1.79-1.47,12.67,0,0,67.27-3.75,61-5C451.91,892.28,446.73,814.2,470.35,812.36Z" transform="translate(-1 5.04)"/><path class="cls-7" d="M521.07,806.11s2.39-15.9,21.51-.52c8.35,26.41,10.32,32.5,15.91,86.67,0,0,34.17-9.92,35.58-5.45-1.2-2.27,10.85-2.59,3.34,14,0,0-68.92-.84-62.74-2.57C551.29,893.67,545.22,807,521.07,806.11Z" transform="translate(-1 5.04)"/><path class="cls-3" d="M439.37,776S519.22,794,553.2,770c0,0,9.53,25.39-3.09,38.82-10-1-17.8,6.77-22.4,8.06,0,0-29.87,17.13-62.23,3.9,0,0-1.54-5-15.16-5.94C450.34,814.78,433.59,807.79,439.37,776Z" transform="translate(-1 5.04)"/><path d="M480.18,694.08a38.19,38.19,0,0,0,14.41,1.27,25.51,25.51,0,0,0,6.32-1,64.62,64.62,0,0,1,6.68-3c1.34-.32.53-2-.83-1.66a19.94,19.94,0,0,0-4.12,1.66,18.43,18.43,0,0,1-7.09,2,37.79,37.79,0,0,1-14.52-1C479.73,692,478.87,693.65,480.18,694.08Z" transform="translate(-1 5.04)"/><path class="cls-7" d="M451.05,750.39c-33.09-5.85-62.77-18-38.36-68.23,0,0-7,5.14-11.89-.65s8.21-8.57,8.21-8.57-6.94-9.52-1.08-17.29S418,671.09,418,671.09,438.52,667,436.27,675s-17.4,6-17.4,6c-30.74,40.27,32.69,72.35,39.45,65.17C461.37,743,451.05,750.39,451.05,750.39Z" transform="translate(-1 5.04)"/><path class="cls-7" d="M535.84,748.09c41.54-.59,70.21-11.5,45.47-65.41,0,0,6.54,5.59,12,.18s-7.33-9.1-7.33-9.1,7.85-8.88,2.86-17-11.69,14.67-11.69,14.67-19.95-5.53-18.59,2.62,16.67,7.11,16.67,7.11c27.23,31.29-27,78.69-44.81,58.26Z" transform="translate(-1 5.04)"/><path d="M464.79,724c-1.2.86.17,2.27,2,2.41,2.56,0,3.14-1.61,2.92-3a.85.85,0,0,0-.86-.48c-.42,0-.72.2-.67.48,0,.66.17,1.54-.86,1.89a1.65,1.65,0,0,1-1.11,0c-.33-.14-.47-.39-.31-.59h0a.37.37,0,0,0,.14-.57.47.47,0,0,0-.14-.11,1.09,1.09,0,0,0-1.09,0h0Z" transform="translate(-1 5.04)"/><path d="M451.77,731c9.54,7.2,20.76,6.68,29.32-1.39,1.06-1,0-3.59-1-2.59-7.93,7.61-18.33,8.2-27.24,1.52C451.6,727.67,450.63,730.12,451.77,731Z" transform="translate(-1 5.04)"/><path d="M501.85,731c9.54,7.2,20.76,6.68,29.32-1.39,1.06-1,0-3.59-1-2.59-7.93,7.61-18.33,8.2-27.24,1.52C501.68,727.67,500.71,730.12,501.85,731Z" transform="translate(-1 5.04)"/><path d="M514.87,726.13c-1.28.77,0,2.27,1.78,2.52,2.56.23,3.28-1.43,3.17-2.77a.81.81,0,0,0-.81-.55c-.42,0-.75.18-.72.43,0,.66,0,1.54-1,1.82a1.65,1.65,0,0,1-1.11,0c-.33-.16-.45-.43-.25-.61h0a.37.37,0,0,0,.14-.57.47.47,0,0,0-.14-.11,1.09,1.09,0,0,0-1.06,0h0Z" transform="translate(-1 5.04)"/><path class="cls-8" d="M478.49,638.62a79.15,79.15,0,0,1,7.82,8.47" transform="translate(-1 5.04)"/><path class="cls-8" d="M478.1,645.46a33,33,0,0,0,9-4.48" transform="translate(-1 5.04)"/><path class="cls-8" d="M493.79,642.43c.77-.24,1.51.39,2,.95l4.59,5.43" transform="translate(-1 5.04)"/><path class="cls-8" d="M494.86,647.86l6.42-4.79" transform="translate(-1 5.04)"/></g><g id="Layer_5" data-name="Layer 5"><g id="Layer_1-3" data-name="Layer 1"><g id="Layer_4-3" data-name="Layer 4"><path class="cls-2" d="M94.39,913.95c-4.79-2.7-73.48,18-45.9,65,0,0,72.4,39.47,106.47-7.73C158.51,968.13,158,920.46,94.39,913.95Z" transform="translate(-1 5.04)"/><path class="cls-2" d="M47.68,978.52c1.89,0,15.23,22.25,24.73,19.07,0,0,43.77,14.29,57.08,3.18s31.91-15.11,26.34-32.18S47.68,978.52,47.68,978.52Z" transform="translate(-1 5.04)"/><path d="M93.36,964.16c4.43-2,8.67,2.11,13.17,2.11a7.24,7.24,0,0,0,4.09-1.34,10.48,10.48,0,0,1,7.18-2.4c.93,0,.93-1.16,0-1.25a10.84,10.84,0,0,0-5.53,1q-1.33.79-2.56,1.7a6.49,6.49,0,0,1-5.27.75c-4-.91-7.49-3.61-11.73-1.66-.84.36,0,1.45.74,1.09Z" transform="translate(-1 5.04)"/><path d="M99.33,914.83a8.69,8.69,0,0,1,1.53-7.37c.6-.61-.45-1.5-1-.86a9.58,9.58,0,0,0-2,8.14C97.89,915.62,99.45,915.62,99.33,914.83Z" transform="translate(-1 5.04)"/><path d="M73.85,979.74a28.74,28.74,0,0,1,10.51.59c2.92.86,5.53,2.27,8.43,3.2a30.41,30.41,0,0,0,16.9.16,68.54,68.54,0,0,0,8.19-3.4,42.11,42.11,0,0,1,9.58-2.84,51.51,51.51,0,0,1,9.58-.61,5.39,5.39,0,0,0,4.79-1.54c.55-.66-.74-1.29-1.29-.61-.93,1.25-3.11.91-4.6.91H131.7a44,44,0,0,0-7.73,1.29c-5.63,1.45-10.29,4.7-16,5.94A29.26,29.26,0,0,1,90.2,981,35,35,0,0,0,83,978.59a34.83,34.83,0,0,0-8.83,0,.64.64,0,0,0-.78.42.6.6,0,0,0,.44.74Z" transform="translate(-1 5.04)"/><path d="M74.09,980a4.31,4.31,0,0,1,0-2.84.61.61,0,0,0-.45-.75h0a.78.78,0,0,0-.91.43,5.3,5.3,0,0,0,0,3.49c.29.75,1.72.41,1.44-.34Z" transform="translate(-1 5.04)"/><path d="M94.39,916.71c-.24-5.44.84-11,5.53-15,.69-.59-.38-1.45-1-.86-5,4.24-6.2,10.09-6,15.88C93,917.51,94.44,917.51,94.39,916.71Z" transform="translate(-1 5.04)"/><ellipse cx="100.34" cy="950.96" rx="1.89" ry="3.97"/><ellipse cx="107.5" cy="951.78" rx="0.96" ry="1.59"/><path class="cls-2" d="M73.11,998.18c-25.93,12-44.24,45.91-21.72,84.94,0,0,67,27.58,103.72-7.48,9.91-5.85,13.93-63.33-24.54-75.19Z" transform="translate(-1 5.04)"/><path class="cls-2" d="M82.69,1114.9s-3.78-14.2-18.15.45c-4.12,24-5.1,29.49-4,78.45,0,0-29.83-7.44-30.55-3.38.77-2-9.58-1.79-1.27,12.66,0,0,57.89-3.74,52.5-5C66.81,1194.72,62.36,1116.74,82.69,1114.9Z" transform="translate(-1 5.04)"/><path class="cls-2" d="M126.33,1108.66s2.06-15.88,18.51-.52c7.18,26.38,8.88,32.46,13.69,86.55,0,0,29.4-9.91,30.62-5.44-1-2.27,9.34-2.59,2.87,13.95,0,0-59.3-.84-54-2.56C152.33,1196.1,147.11,1109.57,126.33,1108.66Z" transform="translate(-1 5.04)"/><path class="cls-3" d="M47.95,1077.36s76.8,18.14,109.49-6.06c0,0,9.17,25.52-3,39-9.58-1-17.12,6.8-21.55,8.1,0,0-28.73,17.22-59.85,3.92,0,0-1.48-5-14.58-6C58.51,1116.35,42.39,1109.32,47.95,1077.36Z" transform="translate(-1 5.04)"/><path d="M91.14,996.78a28.52,28.52,0,0,0,12.4,1.27,19.17,19.17,0,0,0,5.43-1,52.06,52.06,0,0,1,5.75-2.95c1.15-.32.45-2-.72-1.66a15.88,15.88,0,0,0-3.54,1.66,14.25,14.25,0,0,1-6.11,2,28.18,28.18,0,0,1-12.52-1,1,1,0,0,0-1.12.72A.89.89,0,0,0,91.14,996.78Z" transform="translate(-1 5.04)"/><path class="cls-2" d="M106.65,1064.39c4.26-8.1-50-40.58-76.61-.45,0,0,7.69,10.18.91,15.36s-10.61-11.66-10.61-11.66-23.58,7-18.44-.66,16.76-6.8,16.76-6.8-2.39-10.82,5-9.75,5.1,8.44,5.1,8.44c38.31-39.83,61.12-23.38,79-1.68C107.92,1057.15,104.79,1068,106.65,1064.39Z" transform="translate(-1 5.04)"/><path class="cls-2" d="M95.93,1068.81c-15.54-20.23,46.71-47.09,70.51-16.19,0,0-5.24,11.5,2.54,15.15s7.71-13.61,7.71-13.61,24.64,2.09,17.86-4.35-17.81-3.22-17.81-3.22-.19-11-7.18-8.57-3.09,9.3-3.09,9.3c-47.09-36.29-65.84-17.6-77.83,14.31Z" transform="translate(-1 5.04)"/><path d="M77.9,1026.65c-1,.86.14,2.27,1.72,2.4a2.35,2.35,0,0,0,2.5-2.16,2.16,2.16,0,0,0-.11-.79.72.72,0,0,0-.74-.48c-.36,0-.62.2-.57.48,0,.66.14,1.54-.74,1.88a1.23,1.23,0,0,1-1,0c-.29-.14-.41-.39-.26-.59h0a.4.4,0,0,0,.12-.57h0l-.12-.11a.83.83,0,0,0-.93,0h0Z" transform="translate(-1 5.04)"/><path d="M66.69,1033.61c8.21,7.19,18,6.67,25.14-1.41.91-1,0-3.58-.89-2.59-6.82,7.6-15.78,8.19-23.44,1.52C66.55,1030.32,65.71,1032.77,66.69,1033.61Z" transform="translate(-1 5.04)"/><path d="M109.79,1033.61c8.21,7.19,18,6.67,25.14-1.41.91-1,0-3.58-.89-2.59-6.82,7.6-15.78,8.19-23.44,1.52C109.65,1030.32,108.81,1032.77,109.79,1033.61Z" transform="translate(-1 5.04)"/><path d="M121,1028.78c-1.1.77,0,2.27,1.53,2.52,2.2.23,2.83-1.43,2.73-2.77a.71.71,0,0,0-.69-.54c-.36,0-.65.18-.62.43,0,.66,0,1.54-.89,1.81a1.23,1.23,0,0,1-1,0c-.29-.16-.38-.43-.22-.61h0a.4.4,0,0,0,.12-.57h0l-.12-.11a.83.83,0,0,0-.91,0h0Z" transform="translate(-1 5.04)"/></g></g><g id="Layer_2-3" data-name="Layer 2"><g id="Layer_4-2-2" data-name="Layer 4-2"><path class="cls-2" d="M297.9,913.95c-4.79-2.7-73.48,18-45.9,65,0,0,72.4,39.47,106.47-7.73C362,968.13,361.51,920.46,297.9,913.95Z" transform="translate(-1 5.04)"/><path class="cls-2" d="M251.19,978.52c1.89,0,15.23,22.25,24.73,19.07,0,0,43.77,14.29,57.08,3.18s31.91-15.11,26.34-32.18S251.19,978.52,251.19,978.52Z" transform="translate(-1 5.04)"/><path d="M296.87,964.16c4.43-2,8.67,2.11,13.17,2.11a7.24,7.24,0,0,0,4.09-1.34,10.48,10.48,0,0,1,7.18-2.4c.93,0,.93-1.16,0-1.25a10.84,10.84,0,0,0-5.53,1q-1.33.79-2.56,1.7a6.49,6.49,0,0,1-5.27.75c-4-.91-7.49-3.61-11.73-1.66-.84.36,0,1.45.74,1.09Z" transform="translate(-1 5.04)"/><path d="M302.83,914.83a8.69,8.69,0,0,1,1.53-7.37c.6-.61-.45-1.5-1-.86a9.58,9.58,0,0,0-2,8.14C301.39,915.62,303,915.62,302.83,914.83Z" transform="translate(-1 5.04)"/><path d="M276.59,977.11a28.55,28.55,0,0,0,9.17-.45c2.54-.66,4.79-1.72,7.35-2.45a30.27,30.27,0,0,1,14.75-.11A64.81,64.81,0,0,1,315,976.7,40.73,40.73,0,0,0,323.4,979a51.24,51.24,0,0,0,8.36.48,5.14,5.14,0,0,1,4.19,1.18c.48.5-.65,1-1.13.48-.81-1-2.71-.7-4-.7h-3.71a43.45,43.45,0,0,1-6.75-1c-4.91-1.11-9-3.58-13.93-4.54a28.91,28.91,0,0,0-15.54,1.36,33.63,33.63,0,0,1-6.27,1.88,34.69,34.69,0,0,1-7.71,0,.58.58,0,0,1-.69-.34.44.44,0,0,1,.21-.61A.5.5,0,0,1,276.59,977.11Z" transform="translate(-1 5.04)"/><path d="M277.6,980a4.31,4.31,0,0,1,0-2.84.61.61,0,0,0-.45-.75h0a.78.78,0,0,0-.91.43,5.3,5.3,0,0,0,0,3.49c.29.75,1.72.41,1.44-.34Z" transform="translate(-1 5.04)"/><path d="M297.9,916.71c-.24-5.44.84-11,5.53-15,.69-.59-.38-1.45-1-.86-5,4.24-6.2,10.09-6,15.88C296.49,917.51,297.95,917.51,297.9,916.71Z" transform="translate(-1 5.04)"/><ellipse cx="303.84" cy="950.96" rx="1.89" ry="3.97"/><ellipse cx="311" cy="951.78" rx="0.96" ry="1.59"/><ellipse cx="514.5" cy="951.78" rx="0.96" ry="1.59"/><path class="cls-2" d="M276.61,998.18c-25.93,12-44.24,45.91-21.72,84.94,0,0,67,27.58,103.72-7.48,9.91-5.85,13.93-63.33-24.54-75.19Z" transform="translate(-1 5.04)"/><path class="cls-2" d="M286.19,1114.9s-3.78-14.2-18.15.45c-4.12,24-5.1,29.49-4,78.45,0,0-29.83-7.44-30.55-3.38.77-2-9.58-1.79-1.27,12.66,0,0,57.89-3.74,52.5-5C270.32,1194.72,265.86,1116.74,286.19,1114.9Z" transform="translate(-1 5.04)"/><path class="cls-2" d="M329.84,1108.66s2.06-15.88,18.51-.52c7.18,26.38,8.88,32.46,13.69,86.55,0,0,29.4-9.91,30.62-5.44-1-2.27,9.34-2.59,2.87,13.95,0,0-59.3-.84-54-2.56C355.84,1196.1,350.62,1109.57,329.84,1108.66Z" transform="translate(-1 5.04)"/><path class="cls-3" d="M251.45,1077.36s76.8,18.14,109.49-6.06c0,0,9.17,25.52-3,39-9.58-1-17.12,6.8-21.55,8.1,0,0-28.73,17.22-59.85,3.92,0,0-1.48-5-14.58-6C262,1116.35,245.9,1109.32,251.45,1077.36Z" transform="translate(-1 5.04)"/><path d="M294.64,996.78A28.52,28.52,0,0,0,307,998a19.17,19.17,0,0,0,5.43-1,52.06,52.06,0,0,1,5.75-2.95c1.15-.32.45-2-.72-1.66a15.88,15.88,0,0,0-3.54,1.66,14.25,14.25,0,0,1-6.11,2,28.18,28.18,0,0,1-12.5-1,1,1,0,0,0-1.15.68A.89.89,0,0,0,294.64,996.78Z" transform="translate(-1 5.04)"/><path class="cls-2" d="M293.09,1049.65c-26.34,11.75-54.44,16.78-69.91-35.13,0,0-1.51,7.55-8.55,5.38s.12-10.86.12-10.86-10.82-4-11.78-13.11,16.76,7.24,16.76,7.24,11.37-13.4,15-5.9-8.07,13.34-8.07,13.34c4.76,47.11,68.69,41.14,68.69,32.09C295.34,1038.65,293.09,1049.65,293.09,1049.65Z" transform="translate(-1 5.04)"/><path class="cls-2" d="M308.12,1041.82c30.62,17.51,57.63,20.69,69.79-35.63,0,0,1.63,7.58,8.62,5.33s-.24-10.89-.24-10.89,10.7-4.11,11.64-13.18-16.76,7.35-16.76,7.35-11.44-13.31-15-5.83,8.19,13.25,8.19,13.25c2.39,38.26-63.8,54.84-65.31,29.87Z" transform="translate(-1 5.04)"/><path d="M281.4,1026.65c-1,.86.14,2.27,1.72,2.4a2.35,2.35,0,0,0,2.5-2.16,2.16,2.16,0,0,0-.11-.79.72.72,0,0,0-.74-.48c-.36,0-.62.2-.57.48,0,.66.14,1.54-.74,1.88a1.23,1.23,0,0,1-1,0c-.29-.14-.41-.39-.26-.59h0a.4.4,0,0,0,.12-.57h0l-.12-.11a.83.83,0,0,0-.93,0h0Z" transform="translate(-1 5.04)"/><path d="M270.2,1033.61c8.21,7.19,18,6.67,25.14-1.41.91-1,0-3.58-.89-2.59-6.82,7.6-15.78,8.19-23.44,1.52C270.05,1030.32,269.22,1032.77,270.2,1033.61Z" transform="translate(-1 5.04)"/><path d="M313.29,1033.61c8.21,7.19,18,6.67,25.14-1.41.91-1,0-3.58-.89-2.59-6.82,7.6-15.78,8.19-23.44,1.52C313.15,1030.32,312.31,1032.77,313.29,1033.61Z" transform="translate(-1 5.04)"/><path d="M324.5,1028.78c-1.1.77,0,2.27,1.53,2.52,2.2.23,2.83-1.43,2.73-2.77a.71.71,0,0,0-.69-.54c-.36,0-.65.18-.62.43,0,.66,0,1.54-.89,1.81a1.23,1.23,0,0,1-1,0c-.29-.16-.38-.43-.22-.61h0a.4.4,0,0,0,.12-.57h0l-.12-.11a.83.83,0,0,0-.91,0h0Z" transform="translate(-1 5.04)"/></g><path class="cls-9" d="M343.22,928.12c-.45-.25-4.55-22.93,12.26-14.72C355.57,914.26,369,925.24,343.22,928.12Z" transform="translate(-1 5.04)"/><path class="cls-9" d="M352.8,935.15c0-.16,4.17-11.54,9.58-3.72C362.21,931.8,365.34,940.07,352.8,935.15Z" transform="translate(-1 5.04)"/></g><g id="Layer_3-3" data-name="Layer 3"><g id="Layer_4-3-2" data-name="Layer 4-3"><path class="cls-2" d="M501.4,913.95c-4.79-2.7-73.48,18-45.9,65,0,0,72.4,39.47,106.47-7.73C565.52,968.13,565,920.46,501.4,913.95Z" transform="translate(-1 5.04)"/><path class="cls-2" d="M454.69,978.52c1.89,0,15.23,22.25,24.73,19.07,0,0,43.77,14.29,57.08,3.18s31.91-15.11,26.34-32.18S454.69,978.52,454.69,978.52Z" transform="translate(-1 5.04)"/><path d="M500.37,964.16c4.43-2,8.67,2.11,13.17,2.11a7.24,7.24,0,0,0,4.09-1.34,10.48,10.48,0,0,1,7.18-2.4c.93,0,.93-1.16,0-1.25a10.84,10.84,0,0,0-5.53,1q-1.33.79-2.56,1.7a6.49,6.49,0,0,1-5.27.75c-4-.91-7.49-3.61-11.73-1.66-.84.36,0,1.45.74,1.09Z" transform="translate(-1 5.04)"/><path d="M506.33,914.83a8.69,8.69,0,0,1,1.53-7.37c.6-.61-.45-1.5-1-.86a9.58,9.58,0,0,0-2,8.14C504.9,915.62,506.45,915.62,506.33,914.83Z" transform="translate(-1 5.04)"/><path d="M480.17,982.1a15.69,15.69,0,0,0,8.71-1.47c2.39-1.32,4.36-3.31,6.68-4.72a16.79,16.79,0,0,1,14.1-1.34,49.67,49.67,0,0,1,7.18,3.88,27,27,0,0,0,8.33,3.06,28.06,28.06,0,0,0,8.07.16,3.69,3.69,0,0,1,4.17,1.7c.53.82-.48,1.72-1,.88-.93-1.56-2.71-1-4-.88a27.79,27.79,0,0,1-3.54.14,25.25,25.25,0,0,1-6.61-1.18c-4.79-1.52-9.15-5.42-14-6.67a16.51,16.51,0,0,0-14.65,3.52,23,23,0,0,1-5.72,3.67,18.8,18.8,0,0,1-7.37.73c-.26.14-.57,0-.69-.5A.86.86,0,0,1,480.17,982.1Z" transform="translate(-1 5.04)"/><path d="M501.4,916.71c-.24-5.44.84-11,5.53-15,.69-.59-.38-1.45-1-.86-5,4.24-6.2,10.09-6,15.88C500,917.51,501.45,917.51,501.4,916.71Z" transform="translate(-1 5.04)"/><path class="cls-2" d="M480.12,998.18c-25.93,12-44.24,45.91-21.72,84.94,0,0,67,27.58,103.72-7.48,9.91-5.85,13.93-63.33-24.54-75.19Z" transform="translate(-1 5.04)"/><path class="cls-2" d="M489.7,1114.9s-3.78-14.2-18.15.45c-4.12,24-5.1,29.49-4,78.45,0,0-29.83-7.44-30.55-3.38.77-2-9.58-1.79-1.27,12.66,0,0,57.89-3.74,52.5-5C473.82,1194.72,469.37,1116.74,489.7,1114.9Z" transform="translate(-1 5.04)"/><path class="cls-2" d="M533.34,1108.66s2.06-15.88,18.51-.52c7.18,26.38,8.88,32.46,13.69,86.55,0,0,29.4-9.91,30.62-5.44-1-2.27,9.34-2.59,2.87,13.95,0,0-59.3-.84-54-2.56C559.34,1196.1,554.12,1109.57,533.34,1108.66Z" transform="translate(-1 5.04)"/><path class="cls-3" d="M455,1077.36s76.8,18.14,109.49-6.06c0,0,9.17,25.52-3,39-9.58-1-17.12,6.8-21.55,8.1,0,0-28.73,17.22-59.85,3.92,0,0-1.48-5-14.58-6C465.51,1116.35,449.4,1109.32,455,1077.36Z" transform="translate(-1 5.04)"/><path d="M498.15,996.78a28.52,28.52,0,0,0,12.4,1.27,19.17,19.17,0,0,0,5.43-1,52.06,52.06,0,0,1,5.75-2.95c1.15-.32.45-2-.72-1.66a15.88,15.88,0,0,0-3.54,1.66,14.25,14.25,0,0,1-6.11,2,28.18,28.18,0,0,1-12.5-1,1,1,0,0,0-1.15.68A.89.89,0,0,0,498.15,996.78Z" transform="translate(-1 5.04)"/><path class="cls-2" d="M473.08,1053c-28.47-5.85-54-18-33-68,0,0-6,5.13-10.22-.66s7.18-8.55,7.18-8.55-6-9.5-.93-17.26,8.69,15.4,8.69,15.4,17.64-4.11,15.71,3.92-15,5.94-15,5.94c-26.34,40.21,28.13,72.26,33.95,65.07C482.08,1045.61,473.08,1053,473.08,1053Z" transform="translate(-1 5.04)"/><path class="cls-2" d="M546.05,1050.71c35.74-.59,60.4-11.48,39.12-65.32,0,0,5.63,5.58,10.29.18s-6.32-9.07-6.32-9.07,6.75-8.87,2.39-17-10.06,14.65-10.06,14.65-17.17-5.51-16,2.61,14.36,7.1,14.36,7.1c23.44,31.25-23.27,78.59-38.57,58.18Z" transform="translate(-1 5.04)"/><path d="M484.91,1026.65c-1,.86.14,2.27,1.72,2.4a2.35,2.35,0,0,0,2.5-2.16,2.16,2.16,0,0,0-.11-.79.72.72,0,0,0-.74-.48c-.36,0-.62.2-.57.48,0,.66.14,1.54-.74,1.88a1.23,1.23,0,0,1-1,0c-.29-.14-.41-.39-.26-.59h0a.4.4,0,0,0,.12-.57h0l-.12-.11a.83.83,0,0,0-.93,0h0Z" transform="translate(-1 5.04)"/><path d="M473.7,1033.61c8.21,7.19,18,6.67,25.14-1.41.91-1,0-3.58-.89-2.59-6.82,7.6-15.78,8.19-23.44,1.52C473.56,1030.32,472.72,1032.77,473.7,1033.61Z" transform="translate(-1 5.04)"/><path d="M516.8,1033.61c8.21,7.19,18,6.67,25.14-1.41.91-1,0-3.58-.89-2.59-6.82,7.6-15.78,8.19-23.44,1.52C516.65,1030.32,515.82,1032.77,516.8,1033.61Z" transform="translate(-1 5.04)"/><path d="M528,1028.78c-1.1.77,0,2.27,1.53,2.52,2.2.23,2.83-1.43,2.73-2.77a.71.71,0,0,0-.69-.54c-.36,0-.65.18-.62.43,0,.66,0,1.54-.89,1.81a1.23,1.23,0,0,1-1,0c-.29-.16-.38-.43-.22-.61h0a.4.4,0,0,0,.12-.57h0l-.12-.11a.83.83,0,0,0-.91,0h0Z" transform="translate(-1 5.04)"/></g><ellipse cx="507.35" cy="950.96" rx="1.89" ry="3.97"/><ellipse cx="514.5" cy="951.78" rx="0.96" ry="1.59"/><path class="cls-9" d="M544,925.6c-.34-.16-3.66-23.13,12.83-14.36C556.9,912,569.95,923.54,544,925.6Z" transform="translate(-1 5.04)"/><path class="cls-9" d="M559.77,934.31c-.17,0-1.72-10.91,6.06-6.8C565.88,927.87,572,933.32,559.77,934.31Z" transform="translate(-1 5.04)"/><path class="cls-9" d="M574.31,919.48s5.1-3.38,4.79,1.16C579,920.73,577.73,924.81,574.31,919.48Z" transform="translate(-1 5.04)"/></g></g><g id="Layer_6" data-name="Layer 6"><g class="cls-10"><g class="cls-10"><path class="cls-2" d="M94.72,1216.12c-4.79-2.7-73.48,18-45.9,65,0,0,72.4,39.47,106.47-7.73,3.54-3.08,3-50.76-60.57-57.27" transform="translate(-1 5.04)"/><path class="cls-2" d="M48,1280.69c1.89,0,15.23,22.25,24.73,19.08,0,0,43.77,14.29,57.08,3.17s31.91-15.1,26.34-32.18S48,1280.69,48,1280.69" transform="translate(-1 5.04)"/><path d="M93.69,1266.34c4.43-2,8.67,2.11,13.17,2.11a7.24,7.24,0,0,0,4.09-1.34,10.48,10.48,0,0,1,7.18-2.4c.93,0,.93-1.16,0-1.25a10.83,10.83,0,0,0-5.53,1,30.66,30.66,0,0,0-2.56,1.7,6.49,6.49,0,0,1-5.27.75c-4-.91-7.49-3.61-11.73-1.65-.84.36,0,1.45.74,1.09Z" transform="translate(-1 5.04)"/><path d="M99.65,1217a8.69,8.69,0,0,1,1.53-7.37c.6-.61-.45-1.5-1-.86a9.58,9.58,0,0,0-2,8.14c0,.88,1.58.88,1.46.09" transform="translate(-1 5.04)"/><path d="M74.18,1281.92a28.75,28.75,0,0,1,10.51.59c2.92.86,5.53,2.27,8.43,3.2a30.42,30.42,0,0,0,16.9.16,68.49,68.49,0,0,0,8.19-3.4,42.14,42.14,0,0,1,9.58-2.83,51.58,51.58,0,0,1,9.58-.61,5.39,5.39,0,0,0,4.79-1.54c.55-.66-.74-1.29-1.29-.61-.93,1.25-3.11.91-4.6.91H132a44,44,0,0,0-7.73,1.29c-5.63,1.45-10.3,4.69-16,5.94a29.27,29.27,0,0,1-17.79-1.79,35,35,0,0,0-7.18-2.45,34.82,34.82,0,0,0-8.83,0,.64.64,0,0,0-.78.42.6.6,0,0,0,.44.74" transform="translate(-1 5.04)"/><path d="M74.42,1282.21a4.31,4.31,0,0,1,0-2.83.61.61,0,0,0-.46-.75.78.78,0,0,0-.91.43,5.31,5.31,0,0,0,0,3.49c.29.75,1.72.41,1.44-.34Z" transform="translate(-1 5.04)"/><path d="M94.72,1218.89c-.24-5.44.84-11,5.53-15,.69-.59-.38-1.45-1-.86-5,4.24-6.2,10.09-6,15.88,0,.77,1.51.77,1.46,0" transform="translate(-1 5.04)"/><path d="M101.66,1244.13c1,0,1.89,1.78,1.89,4s-.85,4-1.89,4-1.89-1.78-1.89-4,.85-4,1.89-4" transform="translate(-1 5.04)"/><path d="M108.82,1247.33c.53,0,1,.71,1,1.59s-.43,1.59-1,1.59-1-.71-1-1.59.43-1.59,1-1.59" transform="translate(-1 5.04)"/><path class="cls-2" d="M73.44,1300.36c-25.93,12-44.24,45.91-21.72,84.94,0,0,67,27.58,103.72-7.49,9.91-5.85,13.93-63.33-24.54-75.19Z" transform="translate(-1 5.04)"/><path class="cls-2" d="M83,1417.08s-3.78-14.2-18.15.45c-4.12,24-5.1,29.48-3.95,78.45,0,0-29.83-7.44-30.55-3.38.77-2-9.58-1.79-1.27,12.66,0,0,57.89-3.74,52.5-5-14.46-3.38-18.91-81.36,1.41-83.19" transform="translate(-1 5.04)"/><path class="cls-2" d="M126.66,1410.84s2.06-15.88,18.51-.52c7.18,26.38,8.88,32.46,13.7,86.55,0,0,29.4-9.91,30.62-5.44-1-2.27,9.34-2.59,2.87,13.95,0,0-59.3-.84-54-2.56,14.29-4.54,9.07-91.06-11.71-92" transform="translate(-1 5.04)"/><path class="cls-3" d="M48.27,1379.54s76.81,18.15,109.49-6.06c0,0,9.17,25.52-3,39-9.58-1-17.12,6.8-21.55,8.1,0,0-28.73,17.22-59.85,3.92,0,0-1.48-5-14.58-6,0,0-16.09-7.05-10.53-39" transform="translate(-1 5.04)"/><path d="M91.47,1299a28.52,28.52,0,0,0,12.4,1.27,19.18,19.18,0,0,0,5.43-1,52.2,52.2,0,0,1,5.75-2.95c1.15-.32.45-2-.72-1.66a16,16,0,0,0-3.54,1.66,14.24,14.24,0,0,1-6.11,2,28.18,28.18,0,0,1-12.52-1A1,1,0,0,0,91,1298a.89.89,0,0,0,.43.93" transform="translate(-1 5.04)"/><path class="cls-11" d="M77,1306.83c17.48,1.54,10.48,13.54,10.48,13.54s14-12,17-4-13,15-13,15,13-9,13,0-19,6-19,6,2,16-8,8c0,0-26,11-19-6,0,0-27-13-6-13s7-21.09,24.52-19.54" transform="translate(-1 5.04)"/><path class="cls-4" d="M156.57,1353.3c7.2-5.64-29-57.49-69.72-31.77,0,0,2.84,12.44-5.45,14.38s-4.91-15-4.91-15-24.39-3.24-16.55-8.14,18.08.65,18.08.65,2.24-10.85,8.58-6.84,1.2,9.79,1.2,9.79c51.25-20.67,65.34,3.68,72.78,30.8.12,0-7.19,8.66-4,6.11" transform="translate(-1 5.04)"/><path class="cls-4" d="M53,1360.08c-25.18-4.06,1.69-66.3,40.19-60.15,0,0,4.07,12,12.24,9.28s-3.73-15.19-3.73-15.19,19.36-15.38,10-15.42-15.17,9.88-15.17,9.88-7.72-7.91-11.11-1.31,4.13,8.88,4.13,8.88c-59.16,5.9-60,32.36-46.82,63.81Z" transform="translate(-1 5.04)"/><path d="M110.12,1335.79c8.21,7.19,18,6.67,25.14-1.41.91-1,0-3.58-.89-2.59-6.82,7.6-15.78,8.19-23.44,1.52-1-.82-1.8,1.63-.81,2.47" transform="translate(-1 5.04)"/><path d="M121.32,1331c-1.1.77,0,2.27,1.53,2.52,2.2.23,2.82-1.43,2.73-2.77a.71.71,0,0,0-.69-.54c-.36,0-.65.18-.62.43,0,.66,0,1.54-.89,1.82a1.23,1.23,0,0,1-1,0c-.29-.16-.38-.43-.22-.61a.39.39,0,0,0,.12-.57h0l-.12-.11a.83.83,0,0,0-.91,0Z" transform="translate(-1 5.04)"/><path class="cls-2" d="M298.23,1216.12c-4.79-2.7-73.48,18-45.9,65,0,0,72.4,39.47,106.47-7.73,3.54-3.08,3-50.76-60.57-57.27" transform="translate(-1 5.04)"/><path class="cls-2" d="M251.52,1280.69c1.89,0,15.23,22.25,24.73,19.08,0,0,43.77,14.29,57.08,3.17s31.91-15.1,26.34-32.18-108.14,9.93-108.14,9.93" transform="translate(-1 5.04)"/><path d="M297.2,1266.34c4.43-2,8.67,2.11,13.17,2.11a7.24,7.24,0,0,0,4.09-1.34,10.47,10.47,0,0,1,7.18-2.4c.93,0,.93-1.16,0-1.25a10.83,10.83,0,0,0-5.53,1,30.66,30.66,0,0,0-2.56,1.7,6.49,6.49,0,0,1-5.27.75c-4-.91-7.49-3.61-11.73-1.65-.84.36,0,1.45.74,1.09Z" transform="translate(-1 5.04)"/><path d="M303.16,1217a8.69,8.69,0,0,1,1.53-7.37c.6-.61-.45-1.5-1-.86a9.58,9.58,0,0,0-2,8.14c0,.88,1.58.88,1.46.09" transform="translate(-1 5.04)"/><path d="M276.92,1279.29a28.55,28.55,0,0,0,9.17-.45c2.54-.66,4.79-1.72,7.35-2.45a30.28,30.28,0,0,1,14.75-.11,64.55,64.55,0,0,1,7.18,2.61,40.74,40.74,0,0,0,8.36,2.27,51.3,51.3,0,0,0,8.36.48,5.14,5.14,0,0,1,4.19,1.18c.48.5-.65,1-1.13.48-.81-1-2.7-.7-4-.7h-3.71a43.57,43.57,0,0,1-6.75-1c-4.91-1.11-9-3.58-13.93-4.54a28.91,28.91,0,0,0-15.54,1.36,33.71,33.71,0,0,1-6.27,1.88,34.74,34.74,0,0,1-7.71,0,.58.58,0,0,1-.7-.34.44.44,0,0,1,.21-.61.5.5,0,0,1,.2,0" transform="translate(-1 5.04)"/><path d="M277.92,1282.21a4.31,4.31,0,0,1,0-2.83.61.61,0,0,0-.46-.75.78.78,0,0,0-.91.43,5.31,5.31,0,0,0,0,3.49c.29.75,1.72.41,1.44-.34Z" transform="translate(-1 5.04)"/><path d="M298.23,1218.89c-.24-5.44.84-11,5.53-15,.69-.59-.38-1.45-1-.86-5,4.24-6.2,10.09-6,15.88,0,.77,1.51.77,1.46,0" transform="translate(-1 5.04)"/><path d="M305.17,1244.13c1,0,1.89,1.78,1.89,4s-.85,4-1.89,4-1.89-1.78-1.89-4,.85-4,1.89-4" transform="translate(-1 5.04)"/><path d="M312.33,1247.33c.53,0,1,.71,1,1.59s-.43,1.59-1,1.59-1-.71-1-1.59.43-1.59,1-1.59" transform="translate(-1 5.04)"/><path d="M515.83,1247.33c.53,0,1,.71,1,1.59s-.43,1.59-1,1.59-1-.71-1-1.59.43-1.59,1-1.59" transform="translate(-1 5.04)"/><path class="cls-4" d="M348.88,1371.31c31.11-16.62,48.17-37.8,6.94-78.05,0,0,7.28,2.65,9.1-4.46s-9.35-5.59-9.35-5.59,2.22-11.25-5-16.86-2.69,18.1-2.69,18.1-17.36,2.61-12.92,9.61,15.57.11,15.57.11c33.68,18.32,12.51,83.2-9.44,71.2Z" transform="translate(-1 5.04)"/><path class="cls-4" d="M248.36,1363.59c-13.07-25.7-19.53-53.52,31.53-71.61,0,0-7.62-1.12-5.8-8.26s10.86-.43,10.86-.43,3.48-11,12.49-12.43-6.37,17.11-6.37,17.11,14,10.67,6.65,14.67-13.73-7.38-13.73-7.38c-46.8,7.15-37.59,70.69-28.56,70.23,4-.21-7.07-1.89-7.07-1.89" transform="translate(-1 5.04)"/><path class="cls-2" d="M276.94,1300.36c-25.93,12-44.24,45.91-21.72,84.94,0,0,67,27.58,103.72-7.49,9.91-5.85,13.93-63.33-24.54-75.19Z" transform="translate(-1 5.04)"/><path class="cls-2" d="M286.52,1417.08s-3.78-14.2-18.15.45c-4.12,24-5.1,29.48-4,78.45,0,0-29.83-7.44-30.55-3.38.77-2-9.58-1.79-1.27,12.66,0,0,57.89-3.74,52.5-5-14.46-3.38-18.91-81.36,1.41-83.19" transform="translate(-1 5.04)"/><path class="cls-2" d="M330.16,1410.84s2.06-15.88,18.51-.52c7.18,26.38,8.88,32.46,13.69,86.55,0,0,29.4-9.91,30.62-5.44-1-2.27,9.34-2.59,2.87,13.95,0,0-59.3-.84-54-2.56,14.29-4.54,9.07-91.06-11.71-92" transform="translate(-1 5.04)"/><path class="cls-3" d="M251.78,1379.54s76.8,18.15,109.49-6.06c0,0,9.17,25.52-3,39-9.58-1-17.12,6.8-21.55,8.1,0,0-28.73,17.22-59.85,3.92,0,0-1.48-5-14.58-6,0,0-16.09-7.05-10.53-39" transform="translate(-1 5.04)"/><path d="M295,1299a28.52,28.52,0,0,0,12.4,1.27,19.19,19.19,0,0,0,5.43-1,52.2,52.2,0,0,1,5.75-2.95c1.15-.32.45-2-.72-1.66a15.91,15.91,0,0,0-3.54,1.66,14.24,14.24,0,0,1-6.11,2,28.18,28.18,0,0,1-12.5-1,1,1,0,0,0-1.15.68.89.89,0,0,0,.43,1" transform="translate(-1 5.04)"/><path d="M281.73,1328.82c-1,.86.14,2.27,1.72,2.4a2.35,2.35,0,0,0,2.5-2.16,2.17,2.17,0,0,0-.11-.79.72.72,0,0,0-.74-.48c-.36,0-.62.21-.57.48,0,.66.14,1.54-.74,1.88a1.23,1.23,0,0,1-1,0c-.29-.14-.41-.39-.26-.59a.4.4,0,0,0,.12-.57h0l-.12-.11a.83.83,0,0,0-.93,0Z" transform="translate(-1 5.04)"/><path d="M270.52,1335.79c8.21,7.19,18,6.67,25.14-1.41.91-1,0-3.58-.89-2.59-6.82,7.6-15.78,8.19-23.44,1.52-1-.82-1.8,1.63-.81,2.47" transform="translate(-1 5.04)"/><path d="M313.62,1335.79c8.21,7.19,18,6.67,25.14-1.41.91-1,0-3.58-.89-2.59-6.82,7.6-15.78,8.19-23.44,1.52-1-.82-1.8,1.63-.81,2.47" transform="translate(-1 5.04)"/><path d="M324.82,1331c-1.1.77,0,2.27,1.53,2.52,2.2.23,2.83-1.43,2.73-2.77a.71.71,0,0,0-.7-.54c-.36,0-.65.18-.62.43,0,.66,0,1.54-.89,1.82a1.23,1.23,0,0,1-1,0c-.29-.16-.38-.43-.22-.61a.4.4,0,0,0,.12-.57h0l-.12-.11a.83.83,0,0,0-.91,0Z" transform="translate(-1 5.04)"/><path class="cls-11" d="M290.13,1307.47c19.68,1.81,11.8,15.92,11.8,15.92s15.77-14.1,19.15-4.7-14.64,17.63-14.64,17.63,14.64-10.58,14.64,0-21.4,7.05-21.4,7.05,2.25,18.8-9,9.4c0,0-29.28,12.93-21.4-7.05,0,0-30.41-15.28-6.76-15.28s7.94-24.78,27.62-23" transform="translate(-1 5.04)"/><path class="cls-2" d="M501.73,1216.12c-4.79-2.7-73.48,18-45.9,65,0,0,72.4,39.47,106.47-7.73,3.54-3.08,3-50.76-60.57-57.27" transform="translate(-1 5.04)"/><path class="cls-2" d="M455,1280.69c1.89,0,15.23,22.25,24.73,19.08,0,0,43.76,14.29,57.08,3.17s31.91-15.1,26.34-32.18S455,1280.69,455,1280.69" transform="translate(-1 5.04)"/><path d="M500.7,1266.34c4.43-2,8.67,2.11,13.17,2.11a7.23,7.23,0,0,0,4.09-1.34,10.48,10.48,0,0,1,7.18-2.4c.93,0,.93-1.16,0-1.25a10.83,10.83,0,0,0-5.53,1,30.66,30.66,0,0,0-2.56,1.7,6.49,6.49,0,0,1-5.27.75c-4-.91-7.49-3.61-11.73-1.65-.84.36,0,1.45.74,1.09Z" transform="translate(-1 5.04)"/><path d="M506.66,1217a8.69,8.69,0,0,1,1.53-7.37c.6-.61-.45-1.5-1-.86a9.58,9.58,0,0,0-2,8.14c0,.88,1.58.88,1.46.09" transform="translate(-1 5.04)"/><path d="M480.49,1284.28a15.68,15.68,0,0,0,8.71-1.47c2.39-1.32,4.36-3.31,6.68-4.72a16.79,16.79,0,0,1,14.1-1.34,49.66,49.66,0,0,1,7.18,3.88,27,27,0,0,0,8.33,3.06,28.08,28.08,0,0,0,8.07.16,3.7,3.7,0,0,1,4.17,1.7c.53.82-.48,1.72-1,.89-.93-1.57-2.7-1-3.95-.89a27.59,27.59,0,0,1-3.54.14,25.26,25.26,0,0,1-6.61-1.18c-4.79-1.52-9.15-5.42-14-6.67a16.51,16.51,0,0,0-14.65,3.51,23,23,0,0,1-5.72,3.68,18.8,18.8,0,0,1-7.37.73c-.26.13-.57,0-.69-.5a.86.86,0,0,1,.34-1" transform="translate(-1 5.04)"/><path d="M501.73,1218.89c-.24-5.44.84-11,5.53-15,.69-.59-.38-1.45-1-.86-5,4.24-6.2,10.09-6,15.88,0,.77,1.51.77,1.46,0" transform="translate(-1 5.04)"/><path class="cls-2" d="M480.45,1300.36c-25.93,12-44.24,45.91-21.72,84.94,0,0,67,27.58,103.72-7.49,9.91-5.85,13.93-63.33-24.54-75.19Z" transform="translate(-1 5.04)"/><path class="cls-2" d="M490,1417.08s-3.78-14.2-18.15.45c-4.12,24-5.1,29.48-4,78.45,0,0-29.83-7.44-30.55-3.38.77-2-9.58-1.79-1.27,12.66,0,0,57.89-3.74,52.5-5-14.46-3.38-18.91-81.36,1.41-83.19" transform="translate(-1 5.04)"/><path class="cls-2" d="M533.67,1410.84s2.06-15.88,18.51-.52c7.18,26.38,8.88,32.46,13.7,86.55,0,0,29.4-9.91,30.62-5.44-1-2.27,9.34-2.59,2.87,13.95,0,0-59.3-.84-54-2.56,14.29-4.54,9.07-91.06-11.71-92" transform="translate(-1 5.04)"/><path class="cls-3" d="M455.28,1379.54s76.8,18.15,109.48-6.06c0,0,9.17,25.52-3,39-9.58-1-17.12,6.8-21.55,8.1,0,0-28.73,17.22-59.85,3.92,0,0-1.49-5-14.58-6,0,0-16.09-7.05-10.53-39" transform="translate(-1 5.04)"/><path d="M498.47,1299a28.52,28.52,0,0,0,12.4,1.27,19.18,19.18,0,0,0,5.43-1,52.21,52.21,0,0,1,5.75-2.95c1.15-.32.46-2-.72-1.66a16,16,0,0,0-3.54,1.66,14.23,14.23,0,0,1-6.1,2,28.18,28.18,0,0,1-12.5-1,1,1,0,0,0-1.15.68.89.89,0,0,0,.43,1" transform="translate(-1 5.04)"/><path class="cls-11" d="M504.29,1304.48c24.61,2.09,14.75,18.33,14.75,18.33s19.71-16.24,23.94-5.41-18.3,20.3-18.3,20.3,18.3-12.18,18.3,0-26.75,8.12-26.75,8.12,2.82,21.65-11.26,10.82c0,0-36.61,14.88-26.75-8.12,0,0-38-17.59-8.45-17.59s9.92-28.53,34.53-26.45" transform="translate(-1 5.04)"/><path class="cls-4" d="M448.27,1353.17c5-28.62,16.4-54.52,67-35,0,0-5.3-5.88.36-10.24s8.76,6.93,8.76,6.93,9.32-6.26,17.23-1.44-15.14,9.14-15.14,9.14,4.62,17.52-3.46,15.81-6.38-14.78-6.38-14.78c-41-25.15-71.41,30.23-64.05,35.84,3.3,2.51-4.36-6.27-4.36-6.27" transform="translate(-1 5.04)"/><path class="cls-4" d="M565.7,1366.88c-3.91-35.54-17-59.08-68.67-32.89,0,0,5-6.12-.78-10.27s-8.45,7.14-8.45,7.14-9.46-5.9-17.16-.8,15.52,8.65,15.52,8.65-3.89,17.6,4.08,15.68,5.73-15,5.73-15c28.94-26.24,80.41,15.87,61.51,33Z" transform="translate(-1 5.04)"/><path d="M508.67,1244.13c1,0,1.89,1.78,1.89,4s-.85,4-1.89,4-1.89-1.78-1.89-4,.85-4,1.89-4" transform="translate(-1 5.04)"/><path d="M515.83,1247.33c.53,0,1,.71,1,1.59s-.43,1.59-1,1.59-1-.71-1-1.59.43-1.59,1-1.59" transform="translate(-1 5.04)"/></g></g></g><g id="Layer_7" data-name="Layer 7"><g class="cls-12"><g class="cls-12"><g class="cls-12"><path class="cls-2" d="M94.72,1517.66c-4.79-2.7-73.48,18-45.9,65,0,0,72.4,39.47,106.47-7.73,3.54-3.08,3-50.76-60.57-57.27" transform="translate(-1 5.04)"/><path class="cls-2" d="M48,1582.23c1.89,0,15.23,22.25,24.73,19.08,0,0,43.77,14.29,57.08,3.17s31.91-15.1,26.34-32.18S48,1582.23,48,1582.23" transform="translate(-1 5.04)"/><path d="M93.69,1567.87c4.43-2,8.67,2.11,13.17,2.11a7.24,7.24,0,0,0,4.09-1.34,10.48,10.48,0,0,1,7.18-2.4c.93,0,.93-1.16,0-1.25a10.83,10.83,0,0,0-5.53,1,30.66,30.66,0,0,0-2.56,1.7,6.49,6.49,0,0,1-5.27.75c-4-.91-7.49-3.61-11.73-1.65-.84.36,0,1.45.74,1.09Z" transform="translate(-1 5.04)"/><path d="M99.65,1518.54a8.69,8.69,0,0,1,1.53-7.37c.6-.61-.45-1.5-1-.86a9.58,9.58,0,0,0-2,8.14c0,.88,1.58.88,1.46.09" transform="translate(-1 5.04)"/><path d="M94.72,1520.43c-.24-5.44.84-11,5.53-15,.69-.59-.38-1.45-1-.86-5,4.24-6.2,10.09-6,15.88,0,.77,1.51.77,1.46,0" transform="translate(-1 5.04)"/><path d="M101.66,1545.67c1,0,1.89,1.78,1.89,4s-.85,4-1.89,4-1.89-1.78-1.89-4,.85-4,1.89-4" transform="translate(-1 5.04)"/><path d="M108.82,1548.87c.53,0,1,.71,1,1.59s-.43,1.59-1,1.59-1-.71-1-1.59.43-1.59,1-1.59" transform="translate(-1 5.04)"/><path class="cls-2" d="M73.44,1601.9c-25.93,12-44.24,45.91-21.72,84.94,0,0,67,27.58,103.72-7.49,9.91-5.85,13.93-63.33-24.54-75.19Z" transform="translate(-1 5.04)"/><path class="cls-2" d="M83,1718.61s-3.78-14.2-18.15.45c-4.12,24-5.1,29.48-3.95,78.45,0,0-29.83-7.44-30.55-3.38.77-2-9.58-1.79-1.27,12.66,0,0,57.89-3.74,52.5-5-14.46-3.38-18.91-81.36,1.41-83.19" transform="translate(-1 5.04)"/><path class="cls-2" d="M126.66,1712.38s2.06-15.88,18.51-.52c7.18,26.38,8.88,32.46,13.7,86.55,0,0,29.4-9.91,30.62-5.44-1-2.27,9.34-2.59,2.87,13.95,0,0-59.3-.84-54-2.56,14.29-4.54,9.07-91.06-11.71-92" transform="translate(-1 5.04)"/><path class="cls-3" d="M48.27,1681.08s76.81,18.15,109.49-6.06c0,0,9.17,25.52-3,39-9.58-1-17.12,6.8-21.55,8.1,0,0-28.73,17.22-59.85,3.92,0,0-1.48-5-14.58-6,0,0-16.09-7.05-10.53-39" transform="translate(-1 5.04)"/><path d="M91.47,1600.49a28.52,28.52,0,0,0,12.4,1.27,19.18,19.18,0,0,0,5.43-1,52.2,52.2,0,0,1,5.75-2.95c1.15-.32.45-2-.72-1.66a16,16,0,0,0-3.54,1.66,14.24,14.24,0,0,1-6.11,2,28.18,28.18,0,0,1-12.52-1,1,1,0,0,0-1.12.72.89.89,0,0,0,.43.93" transform="translate(-1 5.04)"/><g class="cls-13"><g class="cls-14"><path class="cls-11" d="M102.14,1608.44c31,2.88,18.57,25.28,18.57,25.28s24.81-22.4,30.13-7.47-23,28-23,28,23-16.8,23,0-33.67,11.2-33.67,11.2,3.54,29.86-14.18,14.93c0,0-46.08,20.53-33.67-11.2,0,0-47.85-24.26-10.63-24.26s12.49-39.36,43.46-36.48" transform="translate(-1 5.04)"/></g></g><path class="cls-11" d="M77,1578.41s22,17,52,0c0,0-35,49-52,0" transform="translate(-1 5.04)"/><path class="cls-15" d="M77,1578.41s22,17,52,0C129,1578.41,94,1627.41,77,1578.41Z" transform="translate(-1 5.04)"/><path class="cls-4" d="M156.57,1654.84c7.2-5.64-29-57.49-69.72-31.76,0,0,2.84,12.44-5.45,14.38s-4.91-15-4.91-15-24.39-3.24-16.55-8.14S78,1615,78,1615s2.24-10.85,8.58-6.84,1.2,9.79,1.2,9.79c51.25-20.67,65.34,3.68,72.78,30.8.12,0-7.19,8.66-4,6.11" transform="translate(-1 5.04)"/><path class="cls-4" d="M53,1661.62c-25.18-4.06,1.69-66.3,40.19-60.15,0,0,4.07,12,12.24,9.28s-3.73-15.19-3.73-15.19,19.36-15.38,10-15.42S96.58,1590,96.58,1590s-7.72-7.91-11.11-1.31,4.13,8.88,4.13,8.88c-59.16,5.9-60,32.36-46.82,63.81Z" transform="translate(-1 5.04)"/><path d="M110.12,1637.32c8.21,7.19,18,6.67,25.14-1.41.91-1,0-3.58-.89-2.59-6.82,7.6-15.78,8.19-23.44,1.52-1-.82-1.8,1.63-.81,2.47" transform="translate(-1 5.04)"/><path d="M121.32,1632.49c-1.1.77,0,2.27,1.53,2.52,2.2.23,2.82-1.43,2.73-2.77a.71.71,0,0,0-.69-.54c-.36,0-.65.18-.62.43,0,.66,0,1.54-.89,1.82a1.23,1.23,0,0,1-1,0c-.29-.16-.38-.43-.22-.61a.39.39,0,0,0,.12-.57h0l-.12-.11a.83.83,0,0,0-.91,0Z" transform="translate(-1 5.04)"/><path class="cls-2" d="M298.23,1517.66c-4.79-2.7-73.48,18-45.9,65,0,0,72.4,39.47,106.47-7.73,3.54-3.08,3-50.76-60.57-57.27" transform="translate(-1 5.04)"/><path class="cls-2" d="M251.52,1582.23c1.89,0,15.23,22.25,24.73,19.08,0,0,43.77,14.29,57.08,3.17s31.91-15.1,26.34-32.18-108.14,9.93-108.14,9.93" transform="translate(-1 5.04)"/><path d="M297.2,1567.87c4.43-2,8.67,2.11,13.17,2.11a7.24,7.24,0,0,0,4.09-1.34,10.47,10.47,0,0,1,7.18-2.4c.93,0,.93-1.16,0-1.25a10.83,10.83,0,0,0-5.53,1,30.66,30.66,0,0,0-2.56,1.7,6.49,6.49,0,0,1-5.27.75c-4-.91-7.49-3.61-11.73-1.65-.84.36,0,1.45.74,1.09Z" transform="translate(-1 5.04)"/><path d="M303.16,1518.54a8.69,8.69,0,0,1,1.53-7.37c.6-.61-.45-1.5-1-.86a9.58,9.58,0,0,0-2,8.14c0,.88,1.58.88,1.46.09" transform="translate(-1 5.04)"/><path d="M298.23,1520.43c-.24-5.44.84-11,5.53-15,.69-.59-.38-1.45-1-.86-5,4.24-6.2,10.09-6,15.88,0,.77,1.51.77,1.46,0" transform="translate(-1 5.04)"/><path d="M305.17,1545.67c1,0,1.89,1.78,1.89,4s-.85,4-1.89,4-1.89-1.78-1.89-4,.85-4,1.89-4" transform="translate(-1 5.04)"/><path d="M312.33,1548.87c.53,0,1,.71,1,1.59s-.43,1.59-1,1.59-1-.71-1-1.59.43-1.59,1-1.59" transform="translate(-1 5.04)"/><path d="M515.83,1548.87c.53,0,1,.71,1,1.59s-.43,1.59-1,1.59-1-.71-1-1.59.43-1.59,1-1.59" transform="translate(-1 5.04)"/><path class="cls-11" d="M284,1577.41s22,17,52,0c0,0-35,49-52,0" transform="translate(-1 5.04)"/><path class="cls-15" d="M284,1577.41s22,17,52,0C336,1577.41,301,1626.41,284,1577.41Z" transform="translate(-1 5.04)"/><path class="cls-4" d="M348.88,1672.85c31.11-16.62,48.17-37.8,6.94-78.05,0,0,7.28,2.65,9.1-4.46s-9.35-5.59-9.35-5.59,2.22-11.25-5-16.86-2.69,18.1-2.69,18.1-17.36,2.61-12.92,9.61,15.57.11,15.57.11c33.68,18.32,12.51,83.2-9.44,71.2Z" transform="translate(-1 5.04)"/><path class="cls-4" d="M248.36,1665.12c-13.07-25.7-19.53-53.52,31.53-71.61,0,0-7.62-1.12-5.8-8.26s10.86-.43,10.86-.43,3.48-11,12.49-12.43-6.37,17.11-6.37,17.11,14,10.67,6.65,14.67-13.73-7.38-13.73-7.38c-46.8,7.15-37.59,70.69-28.56,70.23,4-.21-7.07-1.89-7.07-1.89" transform="translate(-1 5.04)"/><path class="cls-2" d="M276.94,1601.9c-25.93,12-44.24,45.91-21.72,84.94,0,0,67,27.58,103.72-7.49,9.91-5.85,13.93-63.33-24.54-75.19Z" transform="translate(-1 5.04)"/><path class="cls-2" d="M286.52,1718.61s-3.78-14.2-18.15.45c-4.12,24-5.1,29.48-4,78.45,0,0-29.83-7.44-30.55-3.38.77-2-9.58-1.79-1.27,12.66,0,0,57.89-3.74,52.5-5-14.46-3.38-18.91-81.36,1.41-83.19" transform="translate(-1 5.04)"/><path class="cls-2" d="M330.16,1712.38s2.06-15.88,18.51-.52c7.18,26.38,8.88,32.46,13.69,86.55,0,0,29.4-9.91,30.62-5.44-1-2.27,9.34-2.59,2.87,13.95,0,0-59.3-.84-54-2.56,14.29-4.54,9.07-91.06-11.71-92" transform="translate(-1 5.04)"/><path class="cls-3" d="M251.78,1681.08s76.8,18.15,109.49-6.06c0,0,9.17,25.52-3,39-9.58-1-17.12,6.8-21.55,8.1,0,0-28.73,17.22-59.85,3.92,0,0-1.48-5-14.58-6,0,0-16.09-7.05-10.53-39" transform="translate(-1 5.04)"/><path d="M295,1600.49a28.52,28.52,0,0,0,12.4,1.27,19.19,19.19,0,0,0,5.43-1,52.2,52.2,0,0,1,5.75-2.95c1.15-.32.45-2-.72-1.66a15.91,15.91,0,0,0-3.54,1.66,14.24,14.24,0,0,1-6.11,2,28.18,28.18,0,0,1-12.5-1,1,1,0,0,0-1.15.68.89.89,0,0,0,.43,1" transform="translate(-1 5.04)"/><path d="M281.73,1630.36c-1,.86.14,2.27,1.72,2.4a2.35,2.35,0,0,0,2.5-2.16,2.17,2.17,0,0,0-.11-.79.72.72,0,0,0-.74-.48c-.36,0-.62.21-.57.48,0,.66.14,1.54-.74,1.88a1.23,1.23,0,0,1-1,0c-.29-.14-.41-.39-.26-.59a.4.4,0,0,0,.12-.57h0l-.12-.11a.83.83,0,0,0-.93,0Z" transform="translate(-1 5.04)"/><path d="M270.52,1637.32c8.21,7.19,18,6.67,25.14-1.41.91-1,0-3.58-.89-2.59-6.82,7.6-15.78,8.19-23.44,1.52-1-.82-1.8,1.63-.81,2.47" transform="translate(-1 5.04)"/><path d="M313.62,1637.32c8.21,7.19,18,6.67,25.14-1.41.91-1,0-3.58-.89-2.59-6.82,7.6-15.78,8.19-23.44,1.52-1-.82-1.8,1.63-.81,2.47" transform="translate(-1 5.04)"/><path d="M324.82,1632.49c-1.1.77,0,2.27,1.53,2.52,2.2.23,2.83-1.43,2.73-2.77a.71.71,0,0,0-.7-.54c-.36,0-.65.18-.62.43,0,.66,0,1.54-.89,1.82a1.23,1.23,0,0,1-1,0c-.29-.16-.38-.43-.22-.61a.4.4,0,0,0,.12-.57h0l-.12-.11a.83.83,0,0,0-.91,0Z" transform="translate(-1 5.04)"/><g class="cls-16"><g class="cls-17"><path class="cls-11" d="M303.68,1589.09c31.26,3.44,18.74,30.22,18.74,30.22s25-26.78,30.41-8.93-23.26,33.47-23.26,33.47,23.26-20.08,23.26,0-34,13.39-34,13.39,3.58,35.7-14.31,17.85c0,0-46.51,24.55-34-13.39,0,0-48.3-29-10.73-29s12.61-47.05,43.87-43.61" transform="translate(-1 5.04)"/></g></g><path class="cls-2" d="M501.73,1517.66c-4.79-2.7-73.48,18-45.9,65,0,0,72.4,39.47,106.47-7.73,3.54-3.08,3-50.76-60.57-57.27" transform="translate(-1 5.04)"/><path class="cls-2" d="M455,1582.23c1.89,0,15.23,22.25,24.73,19.08,0,0,43.76,14.29,57.08,3.17s31.91-15.1,26.34-32.18S455,1582.23,455,1582.23" transform="translate(-1 5.04)"/><path d="M500.7,1567.87c4.43-2,8.67,2.11,13.17,2.11a7.23,7.23,0,0,0,4.09-1.34,10.48,10.48,0,0,1,7.18-2.4c.93,0,.93-1.16,0-1.25a10.83,10.83,0,0,0-5.53,1,30.66,30.66,0,0,0-2.56,1.7,6.49,6.49,0,0,1-5.27.75c-4-.91-7.49-3.61-11.73-1.65-.84.36,0,1.45.74,1.09Z" transform="translate(-1 5.04)"/><path d="M506.66,1518.54a8.69,8.69,0,0,1,1.53-7.37c.6-.61-.45-1.5-1-.86a9.58,9.58,0,0,0-2,8.14c0,.88,1.58.88,1.46.09" transform="translate(-1 5.04)"/><path d="M501.73,1520.43c-.24-5.44.84-11,5.53-15,.69-.59-.38-1.45-1-.86-5,4.24-6.2,10.09-6,15.88,0,.77,1.51.77,1.46,0" transform="translate(-1 5.04)"/><path class="cls-2" d="M480.45,1601.9c-25.93,12-44.24,45.91-21.72,84.94,0,0,67,27.58,103.72-7.49,9.91-5.85,13.93-63.33-24.54-75.19Z" transform="translate(-1 5.04)"/><path class="cls-2" d="M490,1718.61s-3.78-14.2-18.15.45c-4.12,24-5.1,29.48-4,78.45,0,0-29.83-7.44-30.55-3.38.77-2-9.58-1.79-1.27,12.66,0,0,57.89-3.74,52.5-5-14.46-3.38-18.91-81.36,1.41-83.19" transform="translate(-1 5.04)"/><path class="cls-2" d="M533.67,1712.38s2.06-15.88,18.51-.52c7.18,26.38,8.88,32.46,13.7,86.55,0,0,29.4-9.91,30.62-5.44-1-2.27,9.34-2.59,2.87,13.95,0,0-59.3-.84-54-2.56,14.29-4.54,9.07-91.06-11.71-92" transform="translate(-1 5.04)"/><path class="cls-3" d="M455.28,1681.08s76.8,18.15,109.48-6.06c0,0,9.17,25.52-3,39-9.58-1-17.12,6.8-21.55,8.1,0,0-28.73,17.22-59.85,3.92,0,0-1.49-5-14.58-6,0,0-16.09-7.05-10.53-39" transform="translate(-1 5.04)"/><path class="cls-11" d="M489,1576.41s22,17,52,0c0,0-35,49-52,0" transform="translate(-1 5.04)"/><path class="cls-15" d="M489,1576.41s22,17,52,0C541,1576.41,506,1625.41,489,1576.41Z" transform="translate(-1 5.04)"/><g class="cls-18"><g class="cls-19"><path class="cls-11" d="M507.68,1526.21c35,5.75,21,50.48,21,50.48s28.06-44.72,34.07-14.91-26.05,55.91-26.05,55.91,26.05-33.54,26.05,0S524.67,1640,524.67,1640s4,59.63-16,29.82c0,0-52.11,41-38.08-22.36,0,0-54.11-48.45-12-48.45s14.12-78.59,49.15-72.84" transform="translate(-1 5.04)"/></g></g><path class="cls-4" d="M448.27,1654.71c5-28.62,16.4-54.51,67-35,0,0-5.3-5.88.36-10.24s8.76,6.93,8.76,6.93,9.32-6.26,17.23-1.44-15.14,9.14-15.14,9.14,4.62,17.52-3.46,15.81-6.38-14.78-6.38-14.78c-41-25.15-71.41,30.23-64.05,35.84,3.3,2.51-4.36-6.27-4.36-6.27" transform="translate(-1 5.04)"/><path class="cls-4" d="M565.7,1668.42c-3.91-35.54-17-59.08-68.67-32.89,0,0,5-6.12-.78-10.27s-8.45,7.14-8.45,7.14-9.46-5.9-17.16-.8,15.52,8.65,15.52,8.65-3.89,17.6,4.08,15.68,5.73-15,5.73-15c28.94-26.24,80.41,15.87,61.51,33Z" transform="translate(-1 5.04)"/><path d="M508.67,1545.67c1,0,1.89,1.78,1.89,4s-.85,4-1.89,4-1.89-1.78-1.89-4,.85-4,1.89-4" transform="translate(-1 5.04)"/><path d="M515.83,1548.87c.53,0,1,.71,1,1.59s-.43,1.59-1,1.59-1-.71-1-1.59.43-1.59,1-1.59" transform="translate(-1 5.04)"/></g></g></g></g></svg>
